<?xml version="1.0" encoding="utf-8"?>
<!-- Generator: Adobe Illustrator 22.0.0, SVG Export Plug-In . SVG Version: 6.00 Build 0)  -->
<svg version="1.1" id="Layer_1" xmlns="http://www.w3.org/2000/svg" xmlns:xlink="http://www.w3.org/1999/xlink" x="0px" y="0px"
	 viewBox="0 0 128 128" style="enable-background:new 0 0 128 128;" xml:space="preserve">
<style type="text/css">
	.st0{fill:url(#SVGID_1_);}
	.st1{fill:url(#SVGID_2_);}
	.st2{fill:url(#SVGID_3_);}
</style>
<g id="Clear_Night">
	<linearGradient id="SVGID_1_" gradientUnits="userSpaceOnUse" x1="41.0198" y1="92.3879" x2="76.6919" y2="56.7158">
		<stop  offset="0" style="stop-color:#00AEEF"/>
		<stop  offset="1" style="stop-color:#00BDF2"/>
	</linearGradient>
	<path class="st0" d="M64.6,102.2c-18.4,0-33.4-15-33.4-33.4c0-14.8,9.9-28,24.2-32.1c0.6-0.2,1.3,0,1.7,0.4
		c0.4,0.5,0.6,1.1,0.4,1.7c-0.8,2.7-1.2,5.5-1.2,8.3C56.4,63.6,69.8,77,86.3,77c2.7,0,5.5-0.4,8.3-1.2c0.6-0.2,1.3,0,1.7,0.4
		c0.4,0.5,0.6,1.1,0.4,1.7C92.6,92.2,79.4,102.2,64.6,102.2z"/>
	<linearGradient id="SVGID_2_" gradientUnits="userSpaceOnUse" x1="80.9607" y1="55.2526" x2="89.314" y2="46.8993">
		<stop  offset="0" style="stop-color:#FDB728"/>
		<stop  offset="1" style="stop-color:#FFCD23"/>
	</linearGradient>
	<path class="st1" d="M86.3,57.5c-0.6,2.3-1.6,2.3-2.3,0c-0.6-2.3-3-4.7-5.3-5.3c-2.3-0.6-2.3-1.6,0-2.3c2.3-0.6,4.7-3,5.3-5.3
		c0.6-2.3,1.6-2.3,2.3,0c0.6,2.3,3,4.7,5.3,5.3c2.3,0.6,2.3,1.6,0,2.3C89.3,52.8,86.9,55.2,86.3,57.5z"/>
	<linearGradient id="SVGID_3_" gradientUnits="userSpaceOnUse" x1="71.2258" y1="33.0153" x2="76.1075" y2="28.1336">
		<stop  offset="0" style="stop-color:#FDB728"/>
		<stop  offset="1" style="stop-color:#FFCD23"/>
	</linearGradient>
	<path class="st2" d="M74.3,34.3c-0.4,1.3-1,1.3-1.3,0c-0.4-1.3-1.8-2.7-3.1-3.1s-1.3-1,0-1.3s2.7-1.8,3.1-3.1c0.4-1.3,1-1.3,1.3,0
		c0.4,1.3,1.8,2.7,3.1,3.1s1.3,1,0,1.3S74.7,33,74.3,34.3z"/>
</g>
</svg>
