<?xml version="1.0" encoding="utf-8"?>
<!-- Generator: Adobe Illustrator 22.0.0, SVG Export Plug-In . SVG Version: 6.00 Build 0)  -->
<svg version="1.1" id="Layer_1" xmlns="http://www.w3.org/2000/svg" xmlns:xlink="http://www.w3.org/1999/xlink" x="0px" y="0px"
	 viewBox="0 0 128 128" style="enable-background:new 0 0 128 128;" xml:space="preserve">
<style type="text/css">
	.st0{fill:#FFFFFF;}
	.st1{fill:url(#SVGID_1_);}
	.st2{fill:url(#SVGID_2_);}
	.st3{fill:url(#SVGID_3_);}
	.st4{fill:url(#SVGID_4_);}
</style>
<g>
	<g id="Mostly_Cloudy">
		<path class="st0" d="M83.6,91.1c9.2,0,16.7-7.5,16.7-16.7s-7.5-16.7-16.7-16.7c-0.1,0-0.1,0-0.2,0C81.9,44.5,70.7,34.2,57,34.2
			c-10.8,0-20.1,6.4-24.3,15.7c-0.1,0-0.3,0-0.4,0c-11.4,0-20.6,9.2-20.6,20.6c0,11.4,9.2,20.6,20.6,20.6"/>
		<linearGradient id="SVGID_1_" gradientUnits="userSpaceOnUse" x1="72.2612" y1="95.1405" x2="104.0172" y2="63.3845">
			<stop  offset="0" style="stop-color:#D0E8F8"/>
			<stop  offset="1" style="stop-color:#E1EEF9"/>
		</linearGradient>
		<path class="st1" d="M105.8,91.1c5.8,0,10.5-4.7,10.5-10.5s-4.7-10.5-10.5-10.5c0,0-0.1,0-0.1,0c-0.9-8.3-8-14.8-16.6-14.8
			c-6.8,0-12.6,4-15.2,9.9c-0.1,0-0.2,0-0.2,0c-7.2,0-12.9,5.8-12.9,12.9c0,7.2,5.8,12.9,12.9,12.9"/>
	</g>
	<g id="Breezy">
		<linearGradient id="SVGID_2_" gradientUnits="userSpaceOnUse" x1="56.1827" y1="89.0647" x2="93.7795" y2="89.0647">
			<stop  offset="0" style="stop-color:#00AEEF"/>
			<stop  offset="1" style="stop-color:#00BDF2"/>
		</linearGradient>
		<path class="st2" d="M89.1,93.8c-2.6,0-4.7-2.1-4.7-4.7c0-0.6,0.1-1.2,0.4-1.8h-27c-0.8,0-1.5-0.7-1.5-1.5c0-0.8,0.7-1.5,1.5-1.5
			h31.3c0,0,0,0,0.1,0c0,0,0,0,0.1,0c2.6,0,4.7,2.1,4.7,4.7C93.8,91.7,91.7,93.8,89.1,93.8z"/>
		<linearGradient id="SVGID_3_" gradientUnits="userSpaceOnUse" x1="43.4717" y1="80.9574" x2="103.5572" y2="80.9574">
			<stop  offset="0" style="stop-color:#00AEEF"/>
			<stop  offset="1" style="stop-color:#00BDF2"/>
		</linearGradient>
		<path class="st3" d="M98.8,85.7c-2.6,0-4.7-2.1-4.7-4.7c0-0.6,0.1-1.2,0.4-1.8H44.9c-0.8,0-1.5-0.7-1.5-1.5s0.7-1.5,1.5-1.5h53.8
			c0,0,0,0,0.1,0c0,0,0,0,0.1,0c2.6,0,4.7,2.1,4.7,4.7C103.6,83.6,101.4,85.7,98.8,85.7z"/>
		<linearGradient id="SVGID_4_" gradientUnits="userSpaceOnUse" x1="65.9604" y1="66.9835" x2="93.7795" y2="66.9835">
			<stop  offset="0" style="stop-color:#00AEEF"/>
			<stop  offset="1" style="stop-color:#00BDF2"/>
		</linearGradient>
		<path class="st4" d="M89.1,62.3c-2.6,0-4.7,2.1-4.7,4.7c0,0.6,0.1,1.2,0.4,1.8H67.4c-0.8,0-1.5,0.7-1.5,1.5c0,0.8,0.7,1.5,1.5,1.5
			h21.5c0,0,0,0,0.1,0c0,0,0,0,0.1,0c2.6,0,4.7-2.1,4.7-4.7C93.8,64.4,91.7,62.3,89.1,62.3z"/>
	</g>
</g>
</svg>
