<?xml version="1.0" encoding="utf-8"?>
<!-- Generator: Adobe Illustrator 22.0.0, SVG Export Plug-In . SVG Version: 6.00 Build 0)  -->
<svg version="1.1" id="Layer_1" xmlns="http://www.w3.org/2000/svg" xmlns:xlink="http://www.w3.org/1999/xlink" x="0px" y="0px"
	 viewBox="0 0 128 128" style="enable-background:new 0 0 128 128;" xml:space="preserve">
<style type="text/css">
	.st0{fill:url(#SVGID_1_);}
	.st1{fill:#FFFFFF;}
	.st2{fill:url(#SVGID_2_);}
</style>
<g id="Party_Cloudy">
	<linearGradient id="SVGID_1_" gradientUnits="userSpaceOnUse" x1="71.3627" y1="63.1644" x2="100.006" y2="34.5211">
		<stop  offset="0" style="stop-color:#FDB728"/>
		<stop  offset="1" style="stop-color:#FFCD23"/>
	</linearGradient>
	<circle class="st0" cx="85.7" cy="48.8" r="20.3"/>
	<path class="st1" d="M82.1,91.5c9.2,0,16.7-7.5,16.7-16.7s-7.5-16.7-16.7-16.7c-0.1,0-0.1,0-0.2,0c-1.5-13.3-12.7-23.6-26.4-23.6
		c-10.8,0-20.1,6.4-24.3,15.7c-0.1,0-0.3,0-0.4,0c-11.4,0-20.6,9.2-20.6,20.6c0,11.4,9.2,20.6,20.6,20.6"/>
	<linearGradient id="SVGID_2_" gradientUnits="userSpaceOnUse" x1="70.7204" y1="95.4871" x2="102.4765" y2="63.7311">
		<stop  offset="0" style="stop-color:#D0E8F8"/>
		<stop  offset="1" style="stop-color:#E1EEF9"/>
	</linearGradient>
	<path class="st2" d="M104.3,91.5c5.8,0,10.5-4.7,10.5-10.5s-4.7-10.5-10.5-10.5c0,0-0.1,0-0.1,0c-0.9-8.3-8-14.8-16.6-14.8
		c-6.8,0-12.6,4-15.2,9.9c-0.1,0-0.2,0-0.2,0c-7.2,0-12.9,5.8-12.9,12.9c0,7.2,5.8,12.9,12.9,12.9"/>
</g>
</svg>
