<?xml version="1.0" encoding="utf-8"?>
<!-- Generator: Adobe Illustrator 22.0.0, SVG Export Plug-In . SVG Version: 6.00 Build 0)  -->
<svg version="1.1" id="Layer_1" xmlns="http://www.w3.org/2000/svg" xmlns:xlink="http://www.w3.org/1999/xlink" x="0px" y="0px"
	 viewBox="0 0 128 128" style="enable-background:new 0 0 128 128;" xml:space="preserve">
<style type="text/css">
	.st0{fill:#FFFFFF;}
	.st1{fill:url(#SVGID_1_);}
	.st2{fill:url(#SVGID_2_);}
	.st3{fill:url(#SVGID_3_);}
	.st4{fill:url(#SVGID_4_);}
	.st5{fill:url(#SVGID_5_);}
	.st6{fill:url(#SVGID_6_);}
	.st7{fill:url(#SVGID_7_);}
</style>
<g id="Drizzle">
	<path class="st0" d="M83.3,73.9c9.1,0,16.4-7.4,16.4-16.4s-7.4-16.4-16.4-16.4c-0.1,0-0.1,0-0.2,0C81.7,28,70.6,17.8,57.1,17.8
		c-10.7,0-19.8,6.4-23.9,15.5c-0.1,0-0.3,0-0.4,0c-11.2,0-20.3,9.1-20.3,20.3c0,11.2,9.1,20.3,20.3,20.3"/>
	<linearGradient id="SVGID_1_" gradientUnits="userSpaceOnUse" x1="72.1453" y1="77.8849" x2="103.4556" y2="46.5745">
		<stop  offset="0" style="stop-color:#D0E8F8"/>
		<stop  offset="1" style="stop-color:#E1EEF9"/>
	</linearGradient>
	<path class="st1" d="M105.2,73.9c5.7,0,10.3-4.6,10.3-10.3s-4.6-10.3-10.3-10.3c0,0-0.1,0-0.1,0c-0.9-8.2-7.9-14.6-16.4-14.6
		c-6.7,0-12.4,4-15,9.7c-0.1,0-0.2,0-0.2,0c-7.1,0-12.8,5.7-12.8,12.8c0,7.1,5.7,12.8,12.8,12.8"/>
	<linearGradient id="SVGID_2_" gradientUnits="userSpaceOnUse" x1="24.2324" y1="92.1945" x2="34.8427" y2="92.1945">
		<stop  offset="0" style="stop-color:#00AEEF"/>
		<stop  offset="1" style="stop-color:#00BDF2"/>
	</linearGradient>
	<path class="st2" d="M27.3,99.1c-0.5,0-1.1-0.1-1.5-0.4c-1.5-0.9-2-2.7-1.1-4.2l4.4-7.7c0.9-1.5,2.7-2,4.2-1.1
		c1.5,0.9,2,2.7,1.1,4.2L30,97.6C29.4,98.6,28.4,99.1,27.3,99.1z"/>
	<linearGradient id="SVGID_3_" gradientUnits="userSpaceOnUse" x1="49.0523" y1="92.1945" x2="59.6627" y2="92.1945">
		<stop  offset="0" style="stop-color:#00AEEF"/>
		<stop  offset="1" style="stop-color:#00BDF2"/>
	</linearGradient>
	<path class="st3" d="M52.1,99.1c-0.5,0-1.1-0.1-1.5-0.4c-1.5-0.9-2-2.7-1.1-4.2l4.4-7.7c0.9-1.5,2.7-2,4.2-1.1
		c1.5,0.9,2,2.7,1.1,4.2l-4.4,7.7C54.2,98.6,53.2,99.1,52.1,99.1z"/>
	<linearGradient id="SVGID_4_" gradientUnits="userSpaceOnUse" x1="73.8723" y1="92.1945" x2="84.4827" y2="92.1945">
		<stop  offset="0" style="stop-color:#00AEEF"/>
		<stop  offset="1" style="stop-color:#00BDF2"/>
	</linearGradient>
	<path class="st4" d="M77,99.1c-0.5,0-1.1-0.1-1.5-0.4c-1.5-0.9-2-2.7-1.1-4.2l4.4-7.7c0.9-1.5,2.7-2,4.2-1.1c1.5,0.9,2,2.7,1.1,4.2
		l-4.4,7.7C79.1,98.6,78,99.1,77,99.1z"/>
	<linearGradient id="SVGID_5_" gradientUnits="userSpaceOnUse" x1="31.9348" y1="103.2552" x2="42.5451" y2="103.2552">
		<stop  offset="0" style="stop-color:#00AEEF"/>
		<stop  offset="1" style="stop-color:#00BDF2"/>
	</linearGradient>
	<path class="st5" d="M35,110.2c-0.5,0-1.1-0.1-1.5-0.4c-1.5-0.9-2-2.7-1.1-4.2l4.4-7.7c0.9-1.5,2.7-2,4.2-1.1
		c1.5,0.9,2,2.7,1.1,4.2l-4.4,7.7C37.1,109.6,36.1,110.2,35,110.2z"/>
	<linearGradient id="SVGID_6_" gradientUnits="userSpaceOnUse" x1="57.5258" y1="103.2552" x2="68.1361" y2="103.2552">
		<stop  offset="0" style="stop-color:#00AEEF"/>
		<stop  offset="1" style="stop-color:#00BDF2"/>
	</linearGradient>
	<path class="st6" d="M60.6,110.2c-0.5,0-1.1-0.1-1.5-0.4c-1.5-0.9-2-2.7-1.1-4.2l4.4-7.7c0.9-1.5,2.7-2,4.2-1.1
		c1.5,0.9,2,2.7,1.1,4.2l-4.4,7.7C62.7,109.6,61.7,110.2,60.6,110.2z"/>
	<linearGradient id="SVGID_7_" gradientUnits="userSpaceOnUse" x1="83.1152" y1="103.2552" x2="93.7256" y2="103.2552">
		<stop  offset="0" style="stop-color:#00AEEF"/>
		<stop  offset="1" style="stop-color:#00BDF2"/>
	</linearGradient>
	<path class="st7" d="M86.2,110.2c-0.5,0-1.1-0.1-1.5-0.4c-1.5-0.9-2-2.7-1.1-4.2l4.4-7.7c0.9-1.5,2.7-2,4.2-1.1
		c1.5,0.9,2,2.7,1.1,4.2l-4.4,7.7C88.3,109.6,87.3,110.2,86.2,110.2z"/>
</g>
</svg>
