<?xml version="1.0" encoding="utf-8"?>
<!-- Generator: Adobe Illustrator 22.0.0, SVG Export Plug-In . SVG Version: 6.00 Build 0)  -->
<svg version="1.1" id="Layer_1" xmlns="http://www.w3.org/2000/svg" xmlns:xlink="http://www.w3.org/1999/xlink" x="0px" y="0px"
	 viewBox="0 0 128 128" style="enable-background:new 0 0 128 128;" xml:space="preserve">
<style type="text/css">
	.st0{fill:#FFFFFF;}
	.st1{fill:url(#SVGID_1_);}
	.st2{fill:url(#SVGID_2_);}
	.st3{fill:url(#SVGID_3_);}
	.st4{fill:url(#SVGID_4_);}
</style>
<g id="Hail">
	<path class="st0" d="M83.2,72.8c9,0,16.3-7.3,16.3-16.3s-7.3-16.3-16.3-16.3c-0.1,0-0.1,0-0.2,0C81.6,27.1,70.6,17,57.1,17
		c-10.6,0-19.7,6.3-23.8,15.4c-0.1,0-0.3,0-0.4,0c-11.2,0-20.2,9.1-20.2,20.2c0,11.2,9.1,20.2,20.2,20.2"/>
	<linearGradient id="SVGID_1_" gradientUnits="userSpaceOnUse" x1="72.1062" y1="76.7416" x2="103.2664" y2="45.5814">
		<stop  offset="0" style="stop-color:#D0E8F8"/>
		<stop  offset="1" style="stop-color:#E1EEF9"/>
	</linearGradient>
	<path class="st1" d="M105,72.8c5.7,0,10.3-4.6,10.3-10.3c0-5.7-4.6-10.3-10.3-10.3c0,0-0.1,0-0.1,0c-0.9-8.2-7.9-14.6-16.3-14.6
		c-6.7,0-12.4,4-14.9,9.7c-0.1,0-0.2,0-0.2,0c-7,0-12.7,5.7-12.7,12.7c0,7,5.7,12.7,12.7,12.7"/>
	<linearGradient id="SVGID_2_" gradientUnits="userSpaceOnUse" x1="28.4624" y1="92.9251" x2="43.274" y2="92.9251">
		<stop  offset="0" style="stop-color:#D0E8F8"/>
		<stop  offset="1" style="stop-color:#E1EEF9"/>
	</linearGradient>
	<circle class="st2" cx="35.9" cy="92.9" r="7.4"/>
	<linearGradient id="SVGID_3_" gradientUnits="userSpaceOnUse" x1="71.2554" y1="92.9251" x2="86.067" y2="92.9251">
		<stop  offset="0" style="stop-color:#D0E8F8"/>
		<stop  offset="1" style="stop-color:#E1EEF9"/>
	</linearGradient>
	<circle class="st3" cx="78.7" cy="92.9" r="7.4"/>
	<linearGradient id="SVGID_4_" gradientUnits="userSpaceOnUse" x1="50.5967" y1="103.6378" x2="65.4083" y2="103.6378">
		<stop  offset="0" style="stop-color:#D0E8F8"/>
		<stop  offset="1" style="stop-color:#E1EEF9"/>
	</linearGradient>
	<circle class="st4" cx="58" cy="103.6" r="7.4"/>
</g>
</svg>
