<?xml version="1.0" encoding="utf-8"?>
<!-- Generator: Adobe Illustrator 22.0.0, SVG Export Plug-In . SVG Version: 6.00 Build 0)  -->
<svg version="1.1" id="Layer_1" xmlns="http://www.w3.org/2000/svg" xmlns:xlink="http://www.w3.org/1999/xlink" x="0px" y="0px"
	 viewBox="0 0 128 128" style="enable-background:new 0 0 128 128;" xml:space="preserve">
<style type="text/css">
	.st0{fill:url(#SVGID_1_);}
	.st1{fill:url(#SVGID_2_);}
	.st2{fill:url(#SVGID_3_);}
	.st3{fill:url(#SVGID_4_);}
	.st4{fill:url(#SVGID_5_);}
	.st5{fill:url(#SVGID_6_);}
	.st6{fill:url(#SVGID_7_);}
	.st7{fill:url(#SVGID_8_);}
	.st8{fill:url(#SVGID_9_);}
	.st9{fill:url(#SVGID_10_);}
	.st10{fill:url(#SVGID_11_);}
	.st11{fill:url(#SVGID_12_);}
	.st12{fill:#FFFFFF;}
	.st13{fill:url(#SVGID_13_);}
</style>
<g id="Snow">
	<linearGradient id="SVGID_1_" gradientUnits="userSpaceOnUse" x1="31.8482" y1="84.4805" x2="37.6094" y2="84.4805">
		<stop  offset="0" style="stop-color:#D0E8F8"/>
		<stop  offset="1" style="stop-color:#E1EEF9"/>
	</linearGradient>
	<circle class="st0" cx="34.7" cy="84.5" r="2.9"/>
	<linearGradient id="SVGID_2_" gradientUnits="userSpaceOnUse" x1="46.2512" y1="84.4805" x2="52.0124" y2="84.4805">
		<stop  offset="0" style="stop-color:#D0E8F8"/>
		<stop  offset="1" style="stop-color:#E1EEF9"/>
	</linearGradient>
	<circle class="st1" cx="49.1" cy="84.5" r="2.9"/>
	<linearGradient id="SVGID_3_" gradientUnits="userSpaceOnUse" x1="60.6542" y1="84.4805" x2="66.4154" y2="84.4805">
		<stop  offset="0" style="stop-color:#D0E8F8"/>
		<stop  offset="1" style="stop-color:#E1EEF9"/>
	</linearGradient>
	<circle class="st2" cx="63.5" cy="84.5" r="2.9"/>
	<linearGradient id="SVGID_4_" gradientUnits="userSpaceOnUse" x1="75.0571" y1="84.4805" x2="80.8183" y2="84.4805">
		<stop  offset="0" style="stop-color:#D0E8F8"/>
		<stop  offset="1" style="stop-color:#E1EEF9"/>
	</linearGradient>
	<circle class="st3" cx="77.9" cy="84.5" r="2.9"/>
	<linearGradient id="SVGID_5_" gradientUnits="userSpaceOnUse" x1="31.8482" y1="107.9324" x2="37.6094" y2="107.9324">
		<stop  offset="0" style="stop-color:#D0E8F8"/>
		<stop  offset="1" style="stop-color:#E1EEF9"/>
	</linearGradient>
	<circle class="st4" cx="34.7" cy="107.9" r="2.9"/>
	<linearGradient id="SVGID_6_" gradientUnits="userSpaceOnUse" x1="46.2512" y1="107.9324" x2="52.0124" y2="107.9324">
		<stop  offset="0" style="stop-color:#D0E8F8"/>
		<stop  offset="1" style="stop-color:#E1EEF9"/>
	</linearGradient>
	<circle class="st5" cx="49.1" cy="107.9" r="2.9"/>
	<linearGradient id="SVGID_7_" gradientUnits="userSpaceOnUse" x1="60.6542" y1="107.9324" x2="66.4154" y2="107.9324">
		<stop  offset="0" style="stop-color:#D0E8F8"/>
		<stop  offset="1" style="stop-color:#E1EEF9"/>
	</linearGradient>
	<circle class="st6" cx="63.5" cy="107.9" r="2.9"/>
	<linearGradient id="SVGID_8_" gradientUnits="userSpaceOnUse" x1="75.0571" y1="107.9324" x2="80.8183" y2="107.9324">
		<stop  offset="0" style="stop-color:#D0E8F8"/>
		<stop  offset="1" style="stop-color:#E1EEF9"/>
	</linearGradient>
	<circle class="st7" cx="77.9" cy="107.9" r="2.9"/>
	<linearGradient id="SVGID_9_" gradientUnits="userSpaceOnUse" x1="24.6467" y1="96.41" x2="30.4079" y2="96.41">
		<stop  offset="0" style="stop-color:#D0E8F8"/>
		<stop  offset="1" style="stop-color:#E1EEF9"/>
	</linearGradient>
	<circle class="st8" cx="27.5" cy="96.4" r="2.9"/>
	<linearGradient id="SVGID_10_" gradientUnits="userSpaceOnUse" x1="39.0497" y1="96.41" x2="44.8109" y2="96.41">
		<stop  offset="0" style="stop-color:#D0E8F8"/>
		<stop  offset="1" style="stop-color:#E1EEF9"/>
	</linearGradient>
	<circle class="st9" cx="41.9" cy="96.4" r="2.9"/>
	<linearGradient id="SVGID_11_" gradientUnits="userSpaceOnUse" x1="53.4527" y1="96.41" x2="59.2139" y2="96.41">
		<stop  offset="0" style="stop-color:#D0E8F8"/>
		<stop  offset="1" style="stop-color:#E1EEF9"/>
	</linearGradient>
	<circle class="st10" cx="56.3" cy="96.4" r="2.9"/>
	<linearGradient id="SVGID_12_" gradientUnits="userSpaceOnUse" x1="67.8557" y1="96.41" x2="73.6169" y2="96.41">
		<stop  offset="0" style="stop-color:#D0E8F8"/>
		<stop  offset="1" style="stop-color:#E1EEF9"/>
	</linearGradient>
	<circle class="st11" cx="70.7" cy="96.4" r="2.9"/>
	<path class="st12" d="M82.1,69.7c8.5,0,15.4-6.9,15.4-15.4S90.6,39,82.1,39c-0.1,0-0.1,0-0.2,0c-1.4-12.2-11.7-21.8-24.4-21.8
		c-10,0-18.5,5.9-22.4,14.5c-0.1,0-0.2,0-0.4,0c-10.5,0-19,8.5-19,19c0,10.5,8.5,19,19,19"/>
	<linearGradient id="SVGID_13_" gradientUnits="userSpaceOnUse" x1="71.6155" y1="73.3535" x2="100.8896" y2="44.0794">
		<stop  offset="0" style="stop-color:#D0E8F8"/>
		<stop  offset="1" style="stop-color:#E1EEF9"/>
	</linearGradient>
	<path class="st13" d="M102.5,69.7c5.3,0,9.6-4.3,9.6-9.6s-4.3-9.6-9.6-9.6c0,0-0.1,0-0.1,0c-0.9-7.7-7.4-13.7-15.3-13.7
		c-6.3,0-11.6,3.7-14,9.1c-0.1,0-0.2,0-0.2,0c-6.6,0-11.9,5.3-11.9,11.9c0,6.6,5.3,11.9,11.9,11.9"/>
</g>
</svg>
