<svg xmlns="http://www.w3.org/2000/svg" xmlns:xlink="http://www.w3.org/1999/xlink" width="815.2" height="739" data-name="Layer 1"><defs><linearGradient id="a" x1="951.7" x2="951.7" y1="575.4" y2="414.4" gradientTransform="rotate(-6.2 792.9 594)" gradientUnits="userSpaceOnUse"><stop offset="0" stop-color="gray" stop-opacity=".3"/><stop offset=".5" stop-color="gray" stop-opacity=".1"/><stop offset="1" stop-color="gray" stop-opacity=".1"/></linearGradient><linearGradient id="b" x1="785.7" x2="785.7" y1="711.4" y2="333.4" xlink:href="#a"/><linearGradient id="c" x1="768.6" x2="768.6" y1="421.6" y2="260.6" gradientTransform="matrix(-.97 -.24 -.24 .97 1136.5 172)" xlink:href="#a"/><linearGradient id="d" x1="602.6" x2="602.6" y1="557.6" y2="179.6" gradientTransform="matrix(-.97 -.24 -.24 .97 1136.5 172)" xlink:href="#a"/></defs><circle cx="387" cy="389" r="269.5" fill="none" stroke="#3ad29f" stroke-dasharray="12" stroke-miterlimit="10" stroke-width="5" opacity=".4"/><circle cx="387" cy="389" r="205.5" fill="none" stroke="#3ad29f" stroke-dasharray="12" stroke-miterlimit="10" stroke-width="5" opacity=".4"/><path fill="#f5f5f5" d="M742 424.5a1.5 1.5 0 0 0 0-3 1.5 1.5 0 0 0 0 3z"/><path fill="url(#a)" d="M886.2 403l2.2 20 36.2-4a34 34 0 0 1 37.5 30.2l5.7 52.4a34 34 0 0 1-30 37.5l-36.3 4 2.2 20 56.2-6.2a34 34 0 0 0 30.1-37.5L980 427a34 34 0 0 0-37.6-30.1z" opacity=".5" transform="translate(-208 -81)"/><path fill="#dbe8fc" d="M683.9 330l2 17.9 28.8-3.2a34 34 0 0 1 37.5 30.1l4.3 39.8a34 34 0 0 1-30 37.5l-28.9 3.1 2 18 46.6-5.2a34 34 0 0 0 30.1-37.5l-8.2-75.5a34 34 0 0 0-37.5-30.1z"/><path fill="url(#b)" d="M884.8 702l-172.6 18.9a45.5 45.5 0 0 1-50.2-40.3L626 350.1l263-28.8L925 651.8a45.5 45.5 0 0 1-40.3 50.2z" opacity=".5" transform="translate(-208 -81)"/><path fill="#dbe8fc" d="M425 277.4l250.6-27.5 34.2 312.7a45.5 45.5 0 0 1-40.2 50.1l-160 17.6a45.5 45.5 0 0 1-50.3-40.3l-34.2-312.6z"/><path fill="tomato" d="M444.9 292.8L659 269.3l30.3 276.9a45.5 45.5 0 0 1-40.2 50.2l-123.8 13.5a45.5 45.5 0 0 1-50.2-40.3L445 292.8z"/><path fill="#fff" d="M489.7 316c-4.5.5-3.7 7.5.8 7s3.7-7.4-.8-7z"/><path fill="#fafafa" d="M518.4 394.4c-4.5.5-3.7 7.4.8 7s3.7-7.5-.8-7zM508.3 448.8c-4.5.5-3.8 7.5.7 7s3.7-7.5-.8-7zM535 518.3c-4.5.5-3.7 7.5.8 7s3.7-7.5-.8-7zM599.3 517.3c-4.5.5-3.8 7.5.7 7s3.7-7.5-.8-7z"/><path fill="#fff" d="M592.3 315.9c-4.5.5-3.7 7.4.7 7s3.8-7.5-.7-7zM638.5 305.8c-4.5.5-3.8 7.4.7 7s3.7-7.5-.8-7z"/><path fill="#fafafa" d="M552.6 339.3c-5.8.7-4.8 9.6 1 9s4.8-9.6-1-9zM610 431.6c-5.8.7-4.8 9.6 1 9s4.8-9.6-1-9zM523 574.5c-6.4.7-5.3 10.6 1 9.9s5.4-10.6-1-10zM491.3 339.5c-6.5.7-5.4 10.7 1 10s5.4-10.7-1-10z"/><path fill="#fafafa" d="M444 284.4l214.7-23.6 6.9 62.7L450.9 347z"/><path d="M554.8 561.4l-30.3-276.8-79.5 8.7L475.3 570a45.5 45.5 0 0 0 50.2 40.3l79.5-8.7a45.5 45.5 0 0 1-50.2-40.3z" opacity=".1"/><path fill="#fff" d="M609.5 555.4L579 278.6l79.6-8.7L689 546.7a45.5 45.5 0 0 1-40.3 50.2l-79.5 8.7a45.5 45.5 0 0 0 40.3-50.2z" opacity=".1"/><path fill="#fafafa" d="M692.5 239c-2.2-19.8-64-29.2-138.1-21S421.9 248.5 424 268.3c1.3 12 24.8 20.3 59.8 23a22.5 22.5 0 0 0 37 24.4c5.3 18.2 17 30.7 29.3 29.3 13.4-1.4 22.6-19 22.4-40.5 5.5 6.2 12.4 9.6 19.4 8.8 8.6-1 15.6-7.8 19.4-17.8a21 21 0 0 0 15.4 5c7-.8 12.8-5.5 16.9-12.5 2.8 15.8 13.7 27.2 25.3 25.9 12.3-1.4 20.8-16.5 19-33.8a38 38 0 0 0-10-22.3c10-6.2 15.2-12.7 14.5-18.9z"/><path fill="url(#c)" d="M371.4 247.9l-4.9 19.5-35.3-9a34 34 0 0 0-41.3 24.8l-12.9 51a34 34 0 0 0 24.7 41.4l35.3 8.9L332 404l-54.8-13.8a34 34 0 0 1-24.7-41.3l22.7-90.2a34 34 0 0 1 41.3-24.7z" opacity=".5" transform="translate(-208 -81)"/><path fill="#dbe8fc" d="M156.7 174l-4.4 17.4-28-7A34 34 0 0 0 82.8 209l-9.7 38.8A34 34 0 0 0 97.8 289l28.2 7.1-4.4 17.5L76 302a34 34 0 0 1-24.7-41.3L70 187.1a34 34 0 0 1 41.3-24.6z"/><path fill="url(#d)" d="M331.8 544.1L500 586.6a45.5 45.5 0 0 0 55.3-33L636.6 231 380 166.5l-81.2 322.4a45.5 45.5 0 0 0 33 55.3z" opacity=".5" transform="translate(-208 -81)"/><path fill="#dbe8fc" d="M288.2 495.3L132.1 456a45.5 45.5 0 0 1-33-55.3l76.8-305 244.4 61.6-76.9 305a45.5 45.5 0 0 1-55.2 33z"/><path fill="tomato" d="M275.3 473l-120.8-30.4a45.5 45.5 0 0 1-33-55.3l68-270 209 52.6-68 270a45.5 45.5 0 0 1-55.2 33z"/><path fill="#fff" d="M351 186.8c4.4 1 2.7 7.9-1.7 6.8s-2.7-8 1.7-6.8z"/><path fill="#fafafa" d="M311.8 260.4c4.4 1.2 2.7 8-1.7 6.8s-2.7-7.8 1.7-6.8zM314.4 315.8c4.3 1 2.6 7.8-1.7 6.7s-2.7-7.9 1.7-6.8zM278.4 381c4.3 1 2.6 7.8-1.8 6.7s-2.6-7.9 1.8-6.8zM214.8 371.1c4.4 1.1 2.7 7.9-1.7 6.8s-2.7-7.9 1.7-6.8z"/><path fill="#fff" d="M249.4 172.5c4.4 1.1 2.6 8-1.7 6.8s-2.7-7.9 1.7-6.8zM205 156.2c4.4 1.1 2.7 7.9-1.7 6.8s-2.6-7.9 1.7-6.8z"/><path fill="#fafafa" d="M285.5 201.2c5.6 1.4 3.4 10.2-2.2 8.8s-3.4-10.2 2.2-8.8zM216 284.8c5.6 1.4 3.4 10.1-2.2 8.7s-3.5-10.1 2.2-8.7zM282.5 438.2c6.2 1.5 3.8 11.2-2.4 9.7s-3.9-11.3 2.4-9.7zM346.2 209.8c6.3 1.6 3.8 11.3-2.4 9.7s-3.8-11.3 2.4-9.7z"/><path fill="#fafafa" d="M385.2 222.8L175.8 170l15.4-61 209.4 52.7z"/><path d="M252.8 420.9l68-270 77.6 19.5-68 270a45.5 45.5 0 0 1-55.2 33L197.5 454a45.5 45.5 0 0 0 55.2-33z" opacity=".1"/><path fill="#fff" d="M199.5 407.5l68-270.1-77.6-19.6-68 270.1a45.5 45.5 0 0 0 33 55.2l77.6 19.6a45.5 45.5 0 0 1-33-55.2z" opacity=".1"/><path fill="#fafafa" d="M160.7 82.6c4.8-19.3 67.4-20.1 139.7-1.9s127 48.6 122 67.9c-3 11.8-27.3 16.7-62.3 14.6a22.5 22.5 0 0 1-40 19c-7.8 17.4-21.1 28-33 25-13-3.2-19.9-21.8-16.6-43-6.3 5.2-13.6 7.6-20.5 6-8.3-2.2-14.3-10-16.8-20.4a21 21 0 0 1-15.9 2.8c-6.7-1.7-12-7-15-14.6-5 15.3-17.3 25-28.6 22.2-12-3-18.4-19.2-14.2-36 2.3-9 7-16.4 12.9-20.8-9-7.6-13.3-14.7-11.7-20.8z"/><path fill="tomato" d="M752.1 656.2a10.9 10.9 0 0 0-14.2 1.3 11.1 11.1 0 0 0 .5 15.5l13.6 13.5a2.3 2.3 0 0 0 3.2 0l13.5-13.6a11.1 11.1 0 0 0 .4-15.5 10.9 10.9 0 0 0-14.2-1.2 2.3 2.3 0 0 1-2.8 0zM34.1 615.2a10.9 10.9 0 0 0-14.2 1.3 11.1 11.1 0 0 0 .5 15.5L34 645.5a2.3 2.3 0 0 0 3.2 0L50.7 632a11.1 11.1 0 0 0 .4-15.5 10.9 10.9 0 0 0-14.2-1.2 2.3 2.3 0 0 1-2.8 0zM70.1 70.2A10.9 10.9 0 0 0 56 71.5a11.1 11.1 0 0 0 .5 15.5L70 100.5a2.3 2.3 0 0 0 3.2 0L86.7 87a11.1 11.1 0 0 0 .4-15.5 10.9 10.9 0 0 0-14.3-1.2 2.3 2.3 0 0 1-2.7 0zM626.1 26.2a10.9 10.9 0 0 0-14.2 1.3 11.1 11.1 0 0 0 .5 15.5L626 56.5a2.3 2.3 0 0 0 3.2 0L642.7 43a11.1 11.1 0 0 0 .4-15.5 10.9 10.9 0 0 0-14.2-1.2 2.3 2.3 0 0 1-2.8 0z" opacity=".5"/><g fill="#3ad29f" opacity=".5"><path d="M443 0h3v17h-3z"/><path d="M453 7v3h-17V7z"/></g><g fill="#3ad29f" opacity=".5"><path d="M7 218h3v17H7z"/><path d="M17 225v3H0v-3z"/></g><g fill="#3ad29f" opacity=".5"><path d="M568 722h3v17h-3z"/><path d="M578 729v3h-17v-3z"/></g><g fill="#3ad29f" opacity=".5"><path d="M17 497h3v17h-3z"/><path d="M27 504v3H10v-3z"/></g><g fill="#3ad29f" opacity=".5"><path d="M203 522h3v17h-3z"/><path d="M213 529v3h-17v-3z"/></g><path fill="#f55f44" d="M147 670.9a3.7 3.7 0 0 1-2-4.4 1.8 1.8 0 0 0 .2-.5 1.8 1.8 0 0 0-3.3-1.2 1.8 1.8 0 0 0-.2.4 3.7 3.7 0 0 1-4.5 2 1.8 1.8 0 0 0-.4-.1 1.8 1.8 0 0 0-1.2 3.3 1.8 1.8 0 0 0 .4.2 3.7 3.7 0 0 1 2 4.4 1.8 1.8 0 0 0-.1.5 1.8 1.8 0 0 0 3.3 1.2 1.8 1.8 0 0 0 .2-.4 3.7 3.7 0 0 1 4.4-2 1.8 1.8 0 0 0 .4.1 1.8 1.8 0 0 0 1.3-3.3 1.8 1.8 0 0 0-.4-.2z" opacity=".5"/><path fill="#3ad29f" d="M395 636.9a3.7 3.7 0 0 1-2-4.4 1.8 1.8 0 0 0 .2-.5 1.8 1.8 0 0 0-3.3-1.2 1.8 1.8 0 0 0-.2.4 3.7 3.7 0 0 1-4.5 2 1.8 1.8 0 0 0-.4-.1 1.8 1.8 0 0 0-1.2 3.3 1.8 1.8 0 0 0 .3.2 3.7 3.7 0 0 1 2 4.4 1.8 1.8 0 0 0 0 .5 1.8 1.8 0 0 0 3.3 1.2 1.8 1.8 0 0 0 .2-.4 3.7 3.7 0 0 1 4.4-2 1.8 1.8 0 0 0 .4.1 1.8 1.8 0 0 0 1.3-3.3 1.8 1.8 0 0 0-.4-.2z" opacity=".5"/><path fill="#f55f44" d="M491 168.9a3.7 3.7 0 0 1-2-4.5 1.8 1.8 0 0 0 .2-.4 1.8 1.8 0 0 0-3.3-1.2 1.8 1.8 0 0 0-.2.4 3.7 3.7 0 0 1-4.5 2 1.8 1.8 0 0 0-.4-.1 1.8 1.8 0 0 0-1.2 3.3 1.8 1.8 0 0 0 .3.2 3.7 3.7 0 0 1 2 4.4 1.8 1.8 0 0 0 0 .5 1.8 1.8 0 0 0 3.3 1.2 1.8 1.8 0 0 0 .2-.4 3.7 3.7 0 0 1 4.4-2 1.8 1.8 0 0 0 .4.1 1.8 1.8 0 0 0 1.3-3.3 1.8 1.8 0 0 0-.4-.2zM748 174.9a3.7 3.7 0 0 1-2-4.5 1.8 1.8 0 0 0 .2-.4 1.8 1.8 0 0 0-3.3-1.2 1.8 1.8 0 0 0-.2.4 3.7 3.7 0 0 1-4.5 2 1.8 1.8 0 0 0-.4-.1 1.8 1.8 0 0 0-1.2 3.3 1.8 1.8 0 0 0 .4.2 3.7 3.7 0 0 1 2 4.4 1.8 1.8 0 0 0-.1.5 1.8 1.8 0 0 0 3.3 1.2 1.8 1.8 0 0 0 .2-.4 3.7 3.7 0 0 1 4.4-2 1.8 1.8 0 0 0 .4.1 1.8 1.8 0 0 0 1.2-3.3 1.8 1.8 0 0 0-.3-.2zM378 449.9a3.7 3.7 0 0 1-2-4.4 1.8 1.8 0 0 0 .2-.5 1.8 1.8 0 0 0-3.3-1.2 1.8 1.8 0 0 0-.2.4 3.7 3.7 0 0 1-4.5 2 1.8 1.8 0 0 0-.4-.1 1.8 1.8 0 0 0-1.2 3.3 1.8 1.8 0 0 0 .3.2 3.7 3.7 0 0 1 2 4.4 1.8 1.8 0 0 0 0 .5 1.8 1.8 0 0 0 3.3 1.2 1.8 1.8 0 0 0 .2-.4 3.7 3.7 0 0 1 4.4-2 1.8 1.8 0 0 0 .4.1 1.8 1.8 0 0 0 1.3-3.3 1.8 1.8 0 0 0-.4-.2zM814 23.9a3.7 3.7 0 0 1-2-4.4 1.8 1.8 0 0 0 .2-.5 1.8 1.8 0 0 0-3.3-1.2 1.8 1.8 0 0 0-.2.4 3.7 3.7 0 0 1-4.5 2 1.8 1.8 0 0 0-.4-.1 1.8 1.8 0 0 0-1.2 3.3 1.8 1.8 0 0 0 .4.2 3.7 3.7 0 0 1 2 4.4 1.8 1.8 0 0 0-.1.5 1.8 1.8 0 0 0 3.3 1.2 1.8 1.8 0 0 0 .2-.4 3.7 3.7 0 0 1 4.4-2 1.8 1.8 0 0 0 .4.1 1.8 1.8 0 0 0 1.2-3.3 1.8 1.8 0 0 0-.3-.2z" opacity=".5"/></svg>