<svg id="Calque_1" data-name="Calque 1" xmlns="http://www.w3.org/2000/svg" xmlns:xlink="http://www.w3.org/1999/xlink" viewBox="0 0 48.08 48.08"><defs><style>.cls-1{fill:url(#Dégradé_sans_nom_32);}.cls-2{fill:url(#Dégradé_sans_nom_31);}.cls-3{fill:#fff;}.cls-4{fill:#383838;}</style><linearGradient id="Dégradé_sans_nom_32" x1="7.58" y1="6.49" x2="46.72" y2="48.21" gradientUnits="userSpaceOnUse"><stop offset="0" stop-color="#15baff"/><stop offset="1" stop-color="#8815ff"/></linearGradient><linearGradient id="Dégradé_sans_nom_31" x1="12.7" y1="11.77" x2="41.35" y2="41.47" gradientUnits="userSpaceOnUse"><stop offset="0"/><stop offset="1" stop-opacity="0"/></linearGradient></defs><title>logo</title><rect class="cls-1" width="48.08" height="48.08" rx="12" ry="12"/><path class="cls-2" d="M22.27,38.82,37.49,54H42A12,12,0,0,0,54,42V37.49L37.69,21.13Z" transform="translate(-5.96 -5.96)"/><circle class="cls-3" cx="24.04" cy="24.04" r="11.71"/><path class="cls-4" d="M23.19,30.88H23V28.74h.18Z" transform="translate(-5.96 -5.96)"/><path class="cls-4" d="M23.88,29.29v.26a.59.59,0,0,1,.22-.22.6.6,0,0,1,.29-.07.45.45,0,0,1,.48.31.6.6,0,0,1,.23-.23.63.63,0,0,1,.31-.08q.51,0,.52.56v1.06h-.18v-1a.47.47,0,0,0-.09-.32.37.37,0,0,0-.29-.1.47.47,0,0,0-.32.12.43.43,0,0,0-.15.29v1.05h-.18V29.82a.44.44,0,0,0-.1-.31.38.38,0,0,0-.29-.1.45.45,0,0,0-.29.09.56.56,0,0,0-.18.28v1.09h-.18V29.29Z" transform="translate(-5.96 -5.96)"/><path class="cls-4" d="M26.32,30.07a1,1,0,0,1,.17-.59.53.53,0,0,1,.45-.22.55.55,0,0,1,.49.26v-.23h.16v1.56a.68.68,0,0,1-.17.49.62.62,0,0,1-.47.18.7.7,0,0,1-.32-.07.62.62,0,0,1-.24-.2l.1-.11a.56.56,0,0,0,.44.23.45.45,0,0,0,.34-.13.52.52,0,0,0,.13-.36v-.2a.57.57,0,0,1-.49.23.53.53,0,0,1-.44-.22,1,1,0,0,1-.17-.6Zm.18,0a.83.83,0,0,0,.12.48.39.39,0,0,0,.34.18.47.47,0,0,0,.46-.29v-.74a.5.5,0,0,0-.18-.23.48.48,0,0,0-.28-.08.4.4,0,0,0-.35.17A.88.88,0,0,0,26.5,30.1Z" transform="translate(-5.96 -5.96)"/><path class="cls-4" d="M29.53,29.44h-.12a.43.43,0,0,0-.28.09.51.51,0,0,0-.16.27v1.09h-.17V29.29H29v.25a.47.47,0,0,1,.45-.28l.12,0Z" transform="translate(-5.96 -5.96)"/><path class="cls-4" d="M30.39,30.91a.68.68,0,0,1-.62-.38.87.87,0,0,1-.09-.4v-.06a.93.93,0,0,1,.09-.41.7.7,0,0,1,.25-.29.61.61,0,0,1,.34-.11.57.57,0,0,1,.46.2A.8.8,0,0,1,31,30v.1H29.85v0a.67.67,0,0,0,.15.45.49.49,0,0,0,.39.18.57.57,0,0,0,.25-.05.56.56,0,0,0,.2-.16l.11.08A.64.64,0,0,1,30.39,30.91Zm0-1.5a.44.44,0,0,0-.33.15.67.67,0,0,0-.17.39h1v0a.59.59,0,0,0-.13-.37A.41.41,0,0,0,30.36,29.41Z" transform="translate(-5.96 -5.96)"/><path class="cls-4" d="M32.28,30.48a.25.25,0,0,0-.1-.21.81.81,0,0,0-.32-.12,1.41,1.41,0,0,1-.33-.1.44.44,0,0,1-.17-.14.35.35,0,0,1-.06-.2.38.38,0,0,1,.16-.31.63.63,0,0,1,.4-.12.65.65,0,0,1,.43.13.42.42,0,0,1,.16.34h-.18a.28.28,0,0,0-.12-.23.53.53,0,0,0-.57,0,.24.24,0,0,0-.1.2.22.22,0,0,0,.09.18.93.93,0,0,0,.32.12,1.5,1.5,0,0,1,.35.12.46.46,0,0,1,.17.15.41.41,0,0,1-.11.53.69.69,0,0,1-.42.12.71.71,0,0,1-.45-.13.41.41,0,0,1-.17-.34h.18a.31.31,0,0,0,.13.24.53.53,0,0,0,.32.09.5.5,0,0,0,.3-.08A.24.24,0,0,0,32.28,30.48Z" transform="translate(-5.96 -5.96)"/><path class="cls-4" d="M32.84,28.83a.12.12,0,0,1,0-.08.12.12,0,0,1,.09,0,.11.11,0,0,1,.12.12.12.12,0,0,1,0,.08.12.12,0,0,1-.09,0,.11.11,0,0,1-.12-.12Zm.21,2h-.18V29.29H33Z" transform="translate(-5.96 -5.96)"/><path class="cls-4" d="M33.64,30.73h1v.15H33.43v-.13l1-1.31h-.93v-.15h1.16v.13Z" transform="translate(-5.96 -5.96)"/><path class="cls-4" d="M35.58,30.91a.69.69,0,0,1-.37-.1.68.68,0,0,1-.25-.28.86.86,0,0,1-.09-.4v-.06a.94.94,0,0,1,.09-.41.71.71,0,0,1,.25-.29.61.61,0,0,1,.34-.11.57.57,0,0,1,.46.2.8.8,0,0,1,.17.54v.1H35v0a.66.66,0,0,0,.16.45.49.49,0,0,0,.39.18.58.58,0,0,0,.25-.05.56.56,0,0,0,.2-.16l.11.08A.64.64,0,0,1,35.58,30.91Zm0-1.5a.44.44,0,0,0-.33.15.67.67,0,0,0-.17.39h1v0a.58.58,0,0,0-.13-.37A.41.41,0,0,0,35.55,29.41Z" transform="translate(-5.96 -5.96)"/><path class="cls-4" d="M37.26,29.44h-.12a.43.43,0,0,0-.28.09.5.5,0,0,0-.16.27v1.09h-.17V29.29h.17v.25a.47.47,0,0,1,.45-.28l.12,0Z" transform="translate(-5.96 -5.96)"/></svg>