<svg xmlns="http://www.w3.org/2000/svg" xmlns:xlink="http://www.w3.org/1999/xlink" width="1132.9" height="839.1" data-name="Layer 1"><defs><linearGradient id="a" x1="819.9" x2="819.9" y1="598.6" y2="132.3" gradientUnits="userSpaceOnUse"><stop offset="0" stop-color="gray" stop-opacity=".3"/><stop offset=".5" stop-color="gray" stop-opacity=".1"/><stop offset="1" stop-color="gray" stop-opacity=".1"/></linearGradient><linearGradient id="b" x1="855.7" x2="855.7" y1="218.7" y2="216.2" xlink:href="#a"/><linearGradient id="c" x1="476.2" x2="476.2" y1="658" y2="395.2" gradientTransform="rotate(90 629 560.6)" xlink:href="#a"/><linearGradient id="d" x1="476.5" x2="476.5" y1="725.8" y2="463.9" gradientTransform="rotate(90 643.6 568)" xlink:href="#a"/><linearGradient id="e" x1="456.7" x2="456.7" y1="719.2" y2="457.3" gradientTransform="rotate(90 617.5 562.9)" xlink:href="#a"/><linearGradient id="f" x1="450.4" x2="450.4" y1="726.3" y2="464.4" gradientTransform="translate(123.7 -187.3)" xlink:href="#a"/><linearGradient id="g" x1="1003.6" x2="1003.6" y1="245.5" y2="74.8" gradientTransform="rotate(90 999.9 155.1)" xlink:href="#a"/><linearGradient id="h" x1="864.8" x2="864.8" y1="849.5" y2="427.4" xlink:href="#a"/></defs><path fill="#cbcbcb" d="M481.3 56.3c-37.1-15-76.4-27.7-116.5-26.1A173.3 173.3 0 0 0 221.5 120c-23.5 44.1-26.4 95.8-36.5 144.8-12.5 60.3-36.4 117.6-62 173.7-13.7 30-28.1 60.9-30.4 93.9-3.1 45.8 18.8 91.5 53.1 122s80 46.5 125.8 50c24.4 2 49.8.2 71.5-11.2 22.9-12 39.6-33.6 62.6-45.5 21.3-11 46.2-12.5 70.1-11a314.1 314.1 0 0 1 91.6 19.4c33.4 12.6 64.5 30.8 97.9 43.5s70.6 19.8 104.7 9.2c32-10 57.4-34.2 80.2-58.7a1028.1 1028.1 0 0 0 102.2-129.3c20.6-30.9 39.7-63.4 48.9-99.4a198.5 198.5 0 0 0-59.7-193.2c-44-38.8-103.1-55.7-161-66-52.7-9.3-113.7-9.9-162.2-34.2-46.3-23.3-88.4-52-137-71.7z" opacity=".1"/><path fill="url(#a)" d="M904.7 150.7c-14.3.6-15 37.4-14 39s-3.3 18.3-3.3 18.3-6.5 25.2-5.7 30-3.5 7.7-3.5 7.7a60.2 60.2 0 0 0-16.4 12.8l-.6.5s-6.1 4-7.2 5.6-4 .3-4 .3-8.3-.8-9.4-.5c-.7.3-1.9-1.1-2.5-2l-.5-.7-.3-7.4a6 6 0 0 0-1-.6l.7-2.6a22.3 22.3 0 0 0 9-8.2l.7-1.2a3 3 0 0 0 1.9.6 3.8 3.8 0 0 0 .9-.1 7.1 7.1 0 0 0 2.5-1.3 13.7 13.7 0 0 0 4.8-5.6 9 9 0 0 0 .5-1.3l-.5.7a7.7 7.7 0 0 0-.5-6.5c-.8-1.2-2-2.2-2.5-3.6-.9-2.5.7-5 1.7-7.3a12.2 12.2 0 0 0 .9-6.8 8.7 8.7 0 0 0-3.7-5.8c-4-2.6-9.3-1.2-13.8-2.4a37.4 37.4 0 0 1-4.8-1.9 36 36 0 0 0-7.3-2.3c-2.4-.5-5.4-.5-7 1.4a14.4 14.4 0 0 0-1.1 2 7.2 7.2 0 0 1-4.5 3.2 16.8 16.8 0 0 1-2.7.3 2.7 2.7 0 0 0 0-1.2c-1.2-3.8 2.1-6.6 6.5-8.3s20.7-14.6 22.6-17.7S856 165 856 165s20-5.7 26.6-26.3-31.4 14.4-35.2 15.5-9.3 5-9.3 5l-24.4 14a88.1 88.1 0 0 0-13 9c-6 5.2-9.7 13.8-9.7 13.8l-5.7 9.3a25.3 25.3 0 0 1-7.5 8l.2-.3c-.3.3-8.7 11-9.4 15.5l-4.2 23.5s-3 14.8-5 17.7c0 0-1.7 8.5-2.7 9.6s-5 13.2-4.3 14.4c0 0-3.8 8.3-3.2 11.5l-6.9 16.5s-3.7 8.1-3.4 13l.3 7.1v2l-2.4 4.1c-1.4 2.8-2.9 6.3-2.8 8.4.2 3.8.2 13-1.6 16.3l-.5-.2a7 7 0 0 0-1 3.3l.2.1-.2 1c-.4 3.7.2 9-.7 10.2-1.4 1.7-.7 37.6-.7 37.6s-2.2 22.4 2.2 36.7l-.4 11.1s-.2 10.5.3 12 .7 12.2.7 12.2l2.5 17.7s-3.3 27.5-.5 34.3a37.4 37.4 0 0 1 3 11.8 18.4 18.4 0 0 0 4.6 1.8v1L741 580v1l-.1 1.1v.4a.5.5 0 0 0 0 .1v.4a2.4 2.4 0 0 0 0 .3 2 2 0 0 1 0 .2v3.5a.5.5 0 0 0 0 .1l.2.5.1.6.1.3a.5.5 0 0 0 0 .2l.1.3.3 1 .2.3v.2l.2.2v.2l.2.2v.2l.2.2.1.2.2.2v.2l.2.2.1.1.2.3.1.1.3.2v.2l.4.3a.5.5 0 0 0 .1 0 2.7 2.7 0 0 0 .3.3l.1.1.2.2.2.2.3.1.2.2.2.1.2.1.2.2.3.1.2.1.3.1.2.1.3.2h.3l.3.2h.3l.4.2h.4l.3.1.3.1H756.6s11.2 1.6 11.6-2.9V592a1.5 1.5 0 0 1 0-.2v-.7-1.4-1.3-.5-1.4-.4l-.2-5.4v-1s-4-5.8-3.3-8 .5-9.6.5-9.6-1.5-3.5-2.5-6.7l-.2-.7a37 37 0 0 0 2.3-3A38 38 0 0 0 762 529a1.4 1.4 0 0 1-.6-1.1.5.5 0 0 1 0-.2l2-23.6-1.2-13.7s-.9-9.4 1-13.4l3.6-35.6 5.2-20.7s1.7-.8 3 3 4.6 21.6 4.6 21.6l8 29s1.4 10.4 2.5 11.9 1.2 8 1.2 8 2.5 5.1 2.2 7.4 0 8.4.8 10.5 1.2 17 1.2 17a34.3 34.3 0 0 0 .3 14.7c2 7.4.8 16.8.8 16.8a11.5 11.5 0 0 0 .7 1l-.3.6-.9 2.3s-.1 7.4.5 9.6-3.2 8-3.2 8v1c-.2 1.1-.3 3.2-.3 5.4V594.1a1.3 1.3 0 0 0 0 .2V595.6c.4 4.5 11.7 2.8 11.7 2.8H811.8l.3-.1.4-.1.5-.2h.3l.2-.2a2.1 2.1 0 0 0 .3 0l.3-.2.2-.1.3-.1.2-.1.3-.2h.2l.2-.2.3-.2.2-.1.2-.2a1.3 1.3 0 0 0 .2-.1 1.8 1.8 0 0 0 .2-.2l.2-.1.2-.2.1-.1.4-.4v-.1l.3-.2v-.2a2 2 0 0 0 .3-.2v-.1l.3-.3v-.1l.2-.3a1.4 1.4 0 0 1 .1-.1l.2-.3v-.1l.2-.3a1 1 0 0 0 0-.1l.2-.3v-.1l.2-.3v-.1l.3-.9.1-.4a.7.7 0 0 1 0-.1v-.3a.1.1 0 0 0 0-.1l.2-.5.1-.6v-.1l.1-.5v-.2-.3-.2-.2-.6V585.4a2.4 2.4 0 0 1 0-.3v-.3a.5.5 0 0 1 0-.1v-.4l-.1-1.2v-1l-.6-16.1v-1l2.8-1.8s-.1-9.2 2.5-13-1.3-13.4-1.3-13.4l-1.7-34.7.7-16a16 16 0 0 1-2-7.8 28.2 28.2 0 0 0-2.7-10s-1.6-5.5.4-7.1-2.2-37-2.2-37 1-25.9-.9-41.2v-.3l.5-.2-.5-3.5-.5.2a28.1 28.1 0 0 0-1-4L811 363l-.1-1.6-.2-3.9a6.6 6.6 0 0 1 .1-1.6l-.1-.1a3.6 3.6 0 0 1 .1-.9l-.5-.5-.2-1.4c-.1-1.8-.2-5 .7-6.9 1.4-2.7 15-12.8 15-12.8l7.7-15.3s7.6-10.8 13.4-12.9 24-14.1 24-14.1 6.3-6.5 6.8-8l.2-.3h.1v-.2l17-25.5c6.8-5.5 7-17.2 7-17.2l1.8-26.8-.6-15.8.9-9s14.9-38 .6-37.5zM807.3 220a21.4 21.4 0 0 0-2.8 10.6v1a21.4 21.4 0 0 0 2.3 9.6 7.8 7.8 0 0 0-1.6 2.9c-.9-1-3.4-4.3-3.5-6.4-.2-2.6-2.7-4.4-2.7-4.4s-.4-5 .2-5.7l.1-.1.2-.4c.7-1 3.1-4.6 5.6-8.7a7.9 7.9 0 0 0 1.3.4l1.5.4z" transform="translate(-33.5 -30.4)"/><path fill="url(#b)" d="M855.8 217.3l.4-1a22.1 22.1 0 0 0-1 2.4l.6-1.4z" transform="translate(-33.5 -30.4)"/><path fill="#f6bac2" d="M778.3 210.7s-3.2 14.9-9 16.8 7 19 7 19l26.5-1.4.5-5.6s-5-11 3.4-24.5-28.5-4.4-28.5-4.4z"/><path fill="#b77983" d="M736.7 563c-.3 4.4-11.3 2.7-11.3 2.7-18.1 2.5-15.1-15.3-15.1-15.3v-.9l.6-16.6.2-4.6s20-9.2 19.5-7.2c-.2.7.2 2.4.8 4.3l2.4 6.6s.1 7.3-.5 9.5 3.2 8 3.2 8v1a116.7 116.7 0 0 1 .2 12.4zM771.8 567.7s-11 1.7-11.4-2.7a113.7 113.7 0 0 1 .2-12.5v-1s3.8-5.8 3.2-8-.5-9.5-.5-9.5l1-2.3c1-2.8 2.6-7.3 2.3-8.6-.5-2 19.5 7.2 19.5 7.2l.2 5.2.6 16v1s3 17.8-15.1 15.2z"/><path fill="#f6bac2" d="M846.8 112a41 41 0 0 1-25.6 26s-13 9.6-14.8 12.6-17.7 15.8-21.9 17.5-7.4 4.5-6.2 8.3c1 3.5-10 20.6-11.6 23.1l-.2.3-3.5 3.6-11.7 6-9.5-3-1.2-11.6 5-9a24.8 24.8 0 0 0 7.2-7.8l5.5-9.2s3.6-8.6 9.3-13.6a84.2 84.2 0 0 1 12.7-9l23.5-14s5.3-4 9-5 40.4-35.7 34-15.3z"/><path d="M751.3 202l15.6-3.1a1 1 0 0 0-.2.6l-.2.3-3.5 3.6-11.7 6-9.5-3-1.2-11.5 5-9c-4.8 10-.1 17-.1 17zM842.8 253.6a3 3 0 0 0-.1.4 4.4 4.4 0 0 1-.6 1l-6.3 3-9.7 1-5-12 3.4-13.3 1.8-2.5.5-.6c.2 2.4 1.2 15 1.1 18.7 0 4.2 3 4.5 3 4.5z" opacity=".1"/><path fill="#d39999" d="M842.3 254.6a3 3 0 0 0-.1.3c-.5 1.5-6.6 8-6.6 8s-17.5 11.9-23.1 14-13 12.7-13 12.7l-7.4 15.2s-13.2 10-14.5 12.7c-.9 1.8-.8 5-.7 6.9l.1 1.4-3.9 4-3 3.3-4.5 4.5-7-1-22.3-3.5-4.3-2.4-23.6-13.3v-2.1l-.1-2-.3-7a38.6 38.6 0 0 1 3.4-13L718 277c-.6-3.1 3-11.4 3-11.4-.6-1.2 3.3-13.1 4.2-14.2s2.6-9.6 2.6-9.6c2-2.9 4.9-17.5 4.9-17.5l4-23.3a58 58 0 0 1 9-15.4c-5.7 10.6-.7 18.3-.7 18.3l5.8-1 15.7-3c-.8.4-.3 5.7-.3 5.7a6.7 6.7 0 0 1 2.6 4.3c.1 2.4 3 6 3.5 6.7a7.8 7.8 0 0 1 3.9-5.3l3.6 4.8 1.2 5.8s-.3.8-2.4 2.4.9 5.8.9 5.8c1 1.6 1.2 7.9 1.2 7.9 2.7-2.3 6.8-2.3 6.8-2.3a20.6 20.6 0 0 0 4.1-5.9 2.4 2.4 0 0 1 3.5-1.6 22.2 22.2 0 0 1 4-2.7c1.8-1 4 1 4 1l.3 7.4.5.7c.7.9 1.8 2.2 2.5 2 1-.3 9 .5 9 .5s2.9 1.2 4-.4 7-5.5 7-5.5 1 15 1 19 3 4.6 3 4.6z"/><path fill="none" d="M842.5 254.6h-.2c.3-1 .2 0 .2 0z"/><circle cx="776.6" cy="244.8" r="1.4" fill="#4b4442"/><circle cx="766.1" cy="265.8" r="1.4" fill="#4b4442"/><circle cx="745.5" cy="310.6" r="1.4" fill="#4b4442"/><circle cx="755.2" cy="288" r="1.4" fill="#4b4442"/><path d="M731.5 525.4c-7.6 9-15.7 8.8-20.5 7.5l.2-4.6s20-9.2 19.4-7.2c-.1.7.2 2.4.9 4.3zM786.3 535.5c-12.8 7.4-20.3-1.3-22-3.7 1-2.8 2.7-7.4 2.3-8.7-.5-2 19.5 7.2 19.5 7.2z" opacity=".1"/><path fill="#8499f0" d="M791.4 520c-2.6 3.6-2.4 12.8-2.4 12.8-16.5 11.8-25.2-2.6-25.2-2.6s1.1-9.3-.8-16.7a34.8 34.8 0 0 1-.3-14.6s-.3-14.7-1.1-16.8-1.2-8.2-.8-10.5-2.1-7.3-2.1-7.3 0-6.4-1.1-7.9-2.4-11.7-2.4-11.7l-7.7-28.9s-3.2-17.5-4.5-21.3-3-3-3-3l-4.5 20.6-3.6 35.3c-1.7 4-1 13.3-1 13.3l1.2 13.7-2 23.4a.5.5 0 0 0 0 .1 1.4 1.4 0 0 0 .7 1.2 38.5 38.5 0 0 1 2.7 22.6c-12.2 17.6-27 8.5-27 8.5a37.4 37.4 0 0 0-2.9-11.7c-2.7-6.7.5-34 .5-34l-2.4-17.7s-.2-10.5-.6-12-.4-11.8-.4-11.8l.4-11.1c-4.2-14.1-2.1-36.4-2.1-36.4s-.7-35.6.6-37.2c1-1.2.4-6.5.8-10.3a7.2 7.2 0 0 1 .9-3.3l.2-.1c2-2.6 2-12.9 1.9-16.9-.1-2.1 1.4-5.5 2.7-8.3 1-2 2-3.5 2.3-4.1l.1-.2s9.2 2.2 33.4 13.8a45.5 45.5 0 0 0 13.8 4.2 30.7 30.7 0 0 0 7.1.1 25.1 25.1 0 0 0 10.4-3.3 18.2 18.2 0 0 0 4.5-3.6 29.9 29.9 0 0 0 0 8l2.8 11.9a31.2 31.2 0 0 1 1 4.3l.5 3.4c1.8 15.3.8 41 .8 41s4 35 2.1 36.6-.3 7.1-.3 7.1a28.5 28.5 0 0 1 2.6 10 16 16 0 0 0 1.9 7.6l-.7 16 1.7 34.4s3.9 9.6 1.3 13.3z"/><path d="M772.6 461.9s12.1-7 14.8-3.9-14.8 3.9-14.8 3.9zM780 465.7s-2 1 2.3 2.3-2.4-2.3-2.4-2.3zM706.5 446.5c-.4 0 10 7 19.6 1.3 0 0-17.3-2-19.6-1.3zM725.6 459.8s-3 5.7-8.8 6.5 8.8-6.5 8.8-6.5zM764.2 472s13.8 22 11.2 27.3-11.2-27.2-11.2-27.2zM740.8 338.7l-1.4 43s8.5-.3 10-14.5 2.5-25.8 2.5-25.8z" opacity=".1"/><path fill="#8499f0" d="M740.4 337.7l-1.5 43s8.5-.3 10-14.5l2.6-25.7z"/><path d="M723 339.6s-6.7 18.1-22.1 9.3a7.1 7.1 0 0 1 1-3.2c4.1 1.7 14 4.3 18-7.4z" opacity=".1"/><path d="M722.6 337.7s-6.8 18-22.2 9.3a7.2 7.2 0 0 1 1-3.3c4.2 1.8 14 4.4 18-7.3z" opacity=".1"/><path fill="#8499f0" d="M722.6 338.7s-6.8 18-22.2 9.3a7.2 7.2 0 0 1 1-3.3c4.2 1.8 14 4.3 18-7.4z"/><path d="M781.6 354.9c-17 8-23.2-11-23.2-11l4 .2c.7 12.1 14 8.9 18.7 7.4l.5 3.4z" opacity=".1"/><path d="M782.5 353.5c-17 8-23.1-11-23.1-11l4 .1c.7 12.2 14 9 18.6 7.4l.5 3.5z" opacity=".1"/><path fill="#8499f0" d="M782 354c-16.9 8-23.1-11-23.1-11l4 .1c.7 12.2 14 8.9 18.7 7.4l.4 3.4z"/><path fill="#fff" d="M722.6 338.7s-6.8 18-22.2 9.3a7.2 7.2 0 0 1 1-3.3c4.2 1.8 14 4.3 18-7.4zM782 354c-16.9 8-23.1-11-23.1-11l4 .1c.7 12.2 14 8.9 18.7 7.4l.4 3.4z" opacity=".1"/><path d="M736.9 559.6c0 1.2 0 2.4-.2 3.3-.3 4.5-11.3 2.8-11.3 2.8-10 1.4-13.6-3.4-14.8-8a18.3 18.3 0 0 1-.5-4.6 19 19 0 0 1 .2-2.7v-1a6.7 6.7 0 0 1 6.2 1.3c4.4 3.6 10.3.9 10.3.9s4.4.3 6 1.8c1 .8 2.5-1.2 3.7-3a215.2 215.2 0 0 1 .4 9.2z" opacity=".1"/><path d="M719.3 559.3s-3 3-8.7-1.6a18.3 18.3 0 0 1-.5-4.6c2.9 2.3 8.2 6.2 9.2 6.2zM736.9 559.6a2.3 2.3 0 0 1-3.3-.5 21.4 21.4 0 0 0 3.2-3v3.5zM760.3 561.6l.1 3.4c.4 4.4 11.4 2.7 11.4 2.7 10 1.4 13.6-3.4 14.7-8a19.2 19.2 0 0 0 .4-7.3v-.9a6.8 6.8 0 0 0-6.2 1.3c-4.5 3.6-10.4.8-10.4.8s-4.3.4-6 1.8c-.9.9-2.5-1.1-3.6-3a207 207 0 0 0-.4 9.2z" opacity=".1"/><path d="M777.9 561.4s3 2.9 8.6-1.6a18.2 18.2 0 0 0 .6-4.6 53.5 53.5 0 0 1-9.2 6.1zM760.3 561.6a2.3 2.3 0 0 0 3.3-.5 21.1 21.1 0 0 1-3.2-3v3.5zM747.1 254.6s-15.4 42.5-9.4 46.2 9.4-46.2 9.4-46.2zM758.4 241.4s-3 14.2-1.5 15.4 1.5-15.4 1.5-15.4zM789.5 274.3s-19 17.7-17.7 19.1 17.7-19 17.7-19zM804 235.5l-24.2 7.3 1-3.8c2.6-2.4 6.8-2.4 6.8-2.4a20.6 20.6 0 0 0 4-5.8 2.4 2.4 0 0 1 3.5-1.6 22.8 22.8 0 0 1 4-2.7c1.8-1 4 1 4 1l.3 7.3.5.7z" opacity=".1"/><path fill="#d39999" d="M804 234.6c-7.2 2.2-24 7.3-24.2 7.2l1-3.8c2.6-2.3 6.8-2.3 6.8-2.3a20.6 20.6 0 0 0 4-5.9 2.4 2.4 0 0 1 3.5-1.6 22.2 22.2 0 0 1 4-2.7c1.8-1 4 1 4 1l.3 7.4.5.7z"/><path d="M779 230.6c1 1.7 1.3 8 1.3 8l-2.8 2.1-5.3-15.2-.3-8v-.4a7.8 7.8 0 0 1 3.8-5.3l3.6 4.8 1.2 5.8s-.3.8-2.4 2.4.9 5.8.9 5.8z" opacity=".1"/><path fill="#d39999" d="M779.5 230c1 1.8 1.3 8 1.3 8l-2.8 2.3-5.3-15.3-.3-8v-.4a7.8 7.8 0 0 1 3.8-5.3l3.6 4.8 1.2 5.8s-.3.8-2.4 2.4.9 5.8.9 5.8z"/><path d="M814.8 204a21.6 21.6 0 1 1-21.6-21.7 21.5 21.5 0 0 1 21.6 21.6z" opacity=".1"/><path fill="#f6bac2" d="M814.8 203a21.7 21.7 0 1 1-21.6-21.7 21.5 21.5 0 0 1 21.6 21.6z"/><path d="M814.8 203a21.5 21.5 0 0 1-3.1 11.2l-.9-1.8c-.4-.8-1.4-1.5-2.2-1a2.3 2.3 0 0 0-.7 1c-.7 1.3-1.8 2.6-3.2 2.6a3.2 3.2 0 0 1-2.8-2.3 9.6 9.6 0 0 1-.2-3.8c.3-2.6.3-5.6-1.6-7.4a11 11 0 0 0-4.2-1.9c-1.5-.4-3-1.2-3.6-2.6-.4-1-.3-2-.7-3a5.3 5.3 0 0 0-3.8-2.9 10.2 10.2 0 0 1-6.9 2.3 25.5 25.5 0 0 1-6.7-1 21.7 21.7 0 0 1 40.6 10.5z" opacity=".1"/><path fill="#7e646b" d="M791.6 193c.4 1 .3 2.1.7 3 .6 1.5 2.1 2.2 3.6 2.7a11 11 0 0 1 4.2 1.9c2 1.7 1.9 4.7 1.6 7.3a9.6 9.6 0 0 0 .2 3.8 3.2 3.2 0 0 0 2.7 2.4c1.5 0 2.6-1.3 3.3-2.6a2.3 2.3 0 0 1 .7-1c.7-.6 1.8.1 2.2 1a10 10 0 0 0 1.3 2.4 2.9 2.9 0 0 0 2.7.6 6.6 6.6 0 0 0 2.4-1.3 13.5 13.5 0 0 0 4.6-5.5 8 8 0 0 0-.3-7c-.7-1.3-1.9-2.3-2.4-3.7-.8-2.4.7-4.8 1.7-7.2a12.5 12.5 0 0 0 .8-6.8 8.7 8.7 0 0 0-3.5-5.7c-3.8-2.5-9-1.1-13.4-2.4a33.8 33.8 0 0 1-4.6-1.8 34 34 0 0 0-7-2.3c-2.3-.5-5.2-.5-6.7 1.4a15.1 15.1 0 0 0-1.1 1.9 7 7 0 0 1-4.4 3.2c-1.3.3-2.6.2-4 .4a4.4 4.4 0 0 0-3.3 2c-.7 1.1-.4 2.6-.2 4s0 2.9-1 3.7c-.5.4-1.2.6-1.5 1.1a1.6 1.6 0 0 0 .4 1.9 4.5 4.5 0 0 0 2 .8 29.2 29.2 0 0 0 7.6 1.4 10.1 10.1 0 0 0 7.2-2.7c-.2.2-1.3.1-1.5.1 2 .2 4.3 1 5 3z"/><g opacity=".1"><path d="M818.5 210.8a6.8 6.8 0 0 1-2.5 1.3 2.9 2.9 0 0 1-2.6-.7 9.8 9.8 0 0 1-1.3-2.4c-.5-.8-1.5-1.5-2.3-1a2.5 2.5 0 0 0-.7 1c-.6 1.3-1.8 2.7-3.2 2.6a3.2 3.2 0 0 1-2.7-2.3 9.6 9.6 0 0 1-.2-3.8c.2-2.6.2-5.6-1.7-7.4a11 11 0 0 0-4.2-1.8c-1.4-.5-3-1.3-3.6-2.7-.4-1-.3-2-.6-3-.6-1.6-2.3-2.5-4-2.9a10.4 10.4 0 0 1-6.7 2.4 29.7 29.7 0 0 1-7.7-1.3 4.6 4.6 0 0 1-2-.9 2.1 2.1 0 0 1-.2-.3 2.8 2.8 0 0 0-1.1.8 1.6 1.6 0 0 0 .4 2 4.5 4.5 0 0 0 2 .8 29.2 29.2 0 0 0 7.6 1.3 10.3 10.3 0 0 0 6.8-2.3c1.6.4 3.3 1.2 4 2.8.3 1 .2 2 .6 3 .6 1.4 2.1 2.2 3.6 2.7a11 11 0 0 1 4.2 1.8c1.9 1.8 1.8 4.8 1.6 7.4a9.6 9.6 0 0 0 .2 3.8 3.2 3.2 0 0 0 2.7 2.3c1.5 0 2.6-1.3 3.2-2.6a2.3 2.3 0 0 1 .7-1c.8-.5 1.9.2 2.3 1a9.6 9.6 0 0 0 1.3 2.4 2.9 2.9 0 0 0 2.6.6 6.6 6.6 0 0 0 2.5-1.2 13.5 13.5 0 0 0 4.6-5.6 8.8 8.8 0 0 0 .4-1.3 14.3 14.3 0 0 1-4 4.5zM820.5 191.2l.6-1.4.3-1a23.6 23.6 0 0 0-1 2.3zM773.7 184.9c1-.9 1-2.4 1-3.7a16.4 16.4 0 0 1-.3-2.3 3.4 3.4 0 0 0-.5.7c-.7 1.2-.4 2.6-.2 4a7.8 7.8 0 0 1 0 1.3z"/></g><path d="M777.6 333.7a227.3 227.3 0 0 1-14.8.5h-7.2a154.2 154.2 0 0 1-23.6-2.5c-10.4-2-20-5.5-26-11.3 1-2 2-3.5 2.3-4.1v-2c10.5 5 43.4 19 68.6 11l.1 1.4.6.5c-.3 1-.1 4.5 0 6.5z" opacity=".1"/><path fill="#4b4442" d="M777.6 332.8a206.7 206.7 0 0 1-14.8.5c-2.3 0-4.7 0-7.2-.2a154.1 154.1 0 0 1-23.6-2.4c-10.4-2-20-5.4-26-11.3 1-2 2-3.5 2.3-4v-2c10.5 5 43.4 18.9 68.6 11l.1 1.4.6.5a30 30 0 0 0 0 6.5z"/><path fill="#b7b6cc" d="M278.5 770.4a13.8 13.8 0 0 1-3-10.4l44.1-361.2 3.7-30a13.8 13.8 0 0 1 13.6-12.2l129.3-.8a13.8 13.8 0 0 0 13.7-14.2v-1.4a13.8 13.8 0 0 1 13.8-14.3h135.9a13.8 13.8 0 0 1 13.8 13.8 14.8 14.8 0 0 1-.1 1.9 13.8 13.8 0 0 0 13.3 15.6l130.5 3.3a13.8 13.8 0 0 1 13.3 16.2l-65.2 381-1.3 7.2a13.5 13.5 0 0 1-2 5.2z"/><path fill="url(#c)" d="M531.6 367.6h262.8V448H531.6z" opacity=".5" transform="rotate(-55.4 617.3 424.5)"/><path fill="#f9fafb" d="M672.3 249.4l62.9 43.4L587.8 506l-62.9-43.4z"/><path fill="#f7b643" d="M676.8 259.5l44.3 30.8-30.8 44.2-44.3-30.7z"/><path fill="#f7b643" d="M642.2 312.9l44.4 30.6-30.7 44.5-44.4-30.7z" opacity=".5"/><path fill="#f7b643" d="M605 366.5l44.5 30.7-30.7 44.4-44.5-30.6z" opacity=".3"/><path fill="url(#d)" d="M485.9 360.8h261.9v80.4H485.9z" opacity=".5" transform="rotate(-73.7 579.7 408.1)"/><path fill="#f9fafb" d="M583.5 236l73.4 21.5-72.5 248-73.3-21.5z"/><path fill="#f97878" d="M593.1 243.2l51.9 15.1-15.2 51.9L578 295z"/><path fill="#f97878" d="M574.8 305.8l51.8 15.1-15.1 51.9-51.8-15.2z" opacity=".5"/><path fill="#f97878" d="M556.5 368.4l51.8 15.1-15.1 51.9-51.8-15.2z" opacity=".3"/><path fill="url(#e)" d="M461.2 361.9h261.9v80.4H461.2z" opacity=".5" transform="rotate(-85.4 559 405)"/><path fill="#f9fafb" d="M531.5 240l76.2 6-20.8 257.6-76.1-6.2z"/><path fill="#73b53b" d="M542.4 245l53.8 4.3L592 303l-53.8-4.3z"/><path fill="#73b53b" d="M537.2 310l53.8 4.3-4.3 53.8-53.8-4.3z" opacity=".5"/><path fill="#73b53b" d="M531.9 375l53.8 4.3-4.3 53.8-53.8-4.3z" opacity=".3"/><path fill="url(#f)" d="M534 277.1h80.4V539H534z" opacity=".5" transform="rotate(-2.6 -111.1 1128.4)"/><path fill="#fff" d="M497.2 250.3l76.4-3.5 11.7 258-76.3 3.5z"/><path fill="#cbcbcb" d="M508.7 253.9l54-2.5 2.4 54-54 2.4z"/><path fill="#cbcbcb" d="M513.7 317l54-2.7 2.7 54-54 2.7z" opacity=".5"/><path fill="#cbcbcb" d="M514.6 384.2l54-2.5 2.4 54-54 2.4z" opacity=".3"/><path fill="#e6ecf8" d="M529.7 590.7L461.8 617l-99.2 38.3a661 661 0 0 0-16.1-27.7c-23.5-39-62.4-99.5-97-152.8-39-60-72.6-110.6-72.6-110.6l24.3-7 198.5-57.6z"/><path d="M529.7 590.7L461.8 617a510.2 510.2 0 0 1-115.3 10.6c-23.5-39-62.4-99.5-97-152.8l-48.3-117.6 198.5-57.6z" opacity=".1"/><path fill="#cbcbcb" d="M580.2 574.4s-105.5 62.4-263 48.2l-125.4-306 60.1-10.3 208-35.7 118 297.8z"/><path d="M577.8 568.5a498.4 498.4 0 0 1-82.4-2.4 265 265 0 0 1-89.7-25.2 271.9 271.9 0 0 1-58.7-39.3c-43.7-39.4-70.8-95.6-95-195.3l207.9-35.7z" opacity=".1"/><path fill="#f9fafb" d="M655.2 551.4s-77.7 15.2-156.9 5.8a265 265 0 0 1-89.7-25.2 272.1 272.1 0 0 1-58.6-39.3c-54.1-48.7-82.7-123.4-112.2-274 0 0 129.2 31.1 257-37.2 0 0 43 268.9 160.4 369.9z"/><path d="M498.3 557.2a265 265 0 0 1-89.7-25.2 272.1 272.1 0 0 1-58.6-39.3c46-3.8 52.7-29 52.7-29 34.1 54.2 95.6 93.5 95.6 93.5z" opacity=".1"/><path fill="#cbcbcb" d="M304.7 274s105-6 134.4-28.6l4.4 14.3s-69.4 30.6-138.8 31zM304.7 344.6s101.7-5.6 178.6-42.7l2.6 6s-61 35.5-181.2 44.8zM312.8 372s101.8-5.5 178.6-42.6l2.6 6s-61 35.5-181.2 44.9zM321 399.6s101.8-5.5 178.6-42.7l2.6 6s-61 35.6-181.2 44.9zM329.2 427.2s101.8-5.6 178.6-42.7l2.6 6s-61 35.5-181.2 44.9zM337.4 454.7S439.1 449.2 516 412l2.6 6s-61 35.6-181.2 45z" opacity=".3"/><path fill="#cbcbcb" d="M1052.8 796.8s-42.3-2.5-37.3 27c0 0-1 5.3 3.7 7.7 0 0 .1-2.2 4.4-1.4a19.4 19.4 0 0 0 4.6.2 9.5 9.5 0 0 0 5.6-2.3s11.9-5 16.5-24.4c0 0 3.4-4.2 3.3-5.3l-7.2 3s2.5 5.1.5 9.4c0 0-.2-9.2-1.6-9l-3.7 1.8s4.2 9 1 15.5c0 0 1.2-11-2.3-14.9l-5 3s4.9 9.2 1.6 16.8c0 0 .8-11.6-2.7-16.1l-4.5 3.5s4.6 9.2 1.8 15.4c0 0-.4-13.5-2.8-14.5 0 0-4 3.5-4.6 5 0 0 3.2 6.6 1.2 10.1 0 0-1.2-9-2.2-9 0 0-4 6-4.4 10 0 0 .2-6 3.5-10.6a12 12 0 0 0-6.1 3.2s.6-4.3 7-4.6c0 0 3.3-4.5 4.2-4.8 0 0-6.4-.5-10.3 1.2 0 0 3.4-4 11.5-2.2l4.5-3.7s-8.5-1.1-12 .2c0 0 4-3.6 13.2-1l4.9-3s-7.2-1.5-11.5-1c0 0 4.5-2.4 13 .2l3.4-1.5-6.8-1.2c-1.5-.2-1.6-.6-1.6-.6a18.1 18.1 0 0 1 9.9 1.1s7.4-2.7 7.3-3.2z"/><ellipse cx="1023.6" cy="834.1" fill="#cbcbcb" opacity=".1" rx="29.9" ry="5.1"/><ellipse cx="813.8" cy="815.2" fill="#cbcbcb" opacity=".1" rx="102" ry="9.2"/><path fill="#cbcbcb" d="M1072.5 699s-23.9-1.4-21 15.3a4 4 0 0 0 2 4.3s.1-1.3 2.5-.9a11.1 11.1 0 0 0 2.6.2 5.3 5.3 0 0 0 3.2-1.3s6.7-2.8 9.3-13.8c0 0 2-2.4 1.8-3l-4 1.7s1.4 3 .3 5.4c0 0-.1-5.2-.9-5.1l-2 1s2.3 5 .5 8.7c0 0 .7-6.2-1.3-8.4l-2.8 1.7s2.7 5.2.8 9.5c0 0 .5-6.6-1.4-9.1l-2.6 2s2.6 5.1 1 8.7c0 0-.2-7.6-1.6-8.2a16 16 0 0 0-2.6 2.8s1.8 3.7.7 5.7c0 0-.7-5-1.2-5 0 0-2.2 3.3-2.5 5.6a12.2 12.2 0 0 1 2-6 6.7 6.7 0 0 0-3.5 1.7s.4-2.3 4-2.5c0 0 1.9-2.6 2.4-2.8 0 0-3.6-.3-5.8.7 0 0 1.9-2.2 6.4-1.2l2.6-2s-4.8-.7-6.8 0c0 0 2.3-2 7.4-.5l2.8-1.7a25 25 0 0 0-6.5-.5s2.6-1.4 7.3 0l2-.8-3.8-.7c-.8 0-1-.3-1-.3a10.3 10.3 0 0 1 5.6.6s4.1-1.5 4-1.8z"/><ellipse cx="1056.1" cy="720" fill="#cbcbcb" opacity=".1" rx="16.9" ry="2.9"/><path fill="#cbcbcb" d="M931.8 713.5s-28.8-1.7-25.4 18.4a5 5 0 0 0 2.6 5.2s0-1.5 3-1a13.1 13.1 0 0 0 3 .2 6.5 6.5 0 0 0 3.9-1.6s8-3.4 11.2-16.6c0 0 2.4-2.9 2.3-3.6l-5 2s1.7 3.6.4 6.5c0 0-.1-6.3-1-6.2-.3 0-2.6 1.3-2.6 1.3s2.9 6 .7 10.5c0 0 .8-7.5-1.6-10.1l-3.4 2s3.3 6.3 1 11.4c0 0 .6-7.8-1.7-11l-3.1 2.5s3.1 6.2 1.2 10.5c0 0-.2-9.2-1.9-10 0 0-2.7 2.5-3.1 3.4 0 0 2.1 4.6.8 7 0 0-.8-6.2-1.5-6.2 0 0-2.7 4-3 6.8a14.8 14.8 0 0 1 2.3-7.2 8.1 8.1 0 0 0-4.1 2.1s.4-2.8 4.8-3c0 0 2.2-3.2 2.8-3.3 0 0-4.3-.4-7 .8 0 0 2.4-2.7 7.8-1.5l3-2.5s-5.6-.8-8 0c0 0 2.7-2.3 9-.6l3.2-2s-4.8-1-7.8-.6c0 0 3.1-1.7 8.8.1l2.4-1-4.6-.9c-1 0-1.1-.4-1.1-.4a12.4 12.4 0 0 1 6.7.8s5-1.9 5-2.2z"/><ellipse cx="912" cy="738.9" fill="#cbcbcb" opacity=".1" rx="20.4" ry="3.4"/><ellipse cx="54.6" cy="819" fill="#cbcbcb" opacity=".1" rx="29.9" ry="5.1"/><path fill="#a8a8a8" d="M34.6 795.5s17-.5 22.2-4.2 26.2-8 27.5-2.2 25.6 29.3 6.4 29.4-44.8-3-50-6.1-6.1-17-6.1-17z"/><path d="M91 816.5c-19.2.1-44.7-3-49.9-6.2-3.9-2.3-5.4-10.9-6-14.8h-.6s1.1 13.7 6.3 16.9 30.7 6.3 49.9 6.2c5.5 0 7.5-2 7.4-5-.8 1.7-3 2.8-7 2.9z" opacity=".2"/><path fill="url(#g)" d="M909.5 6.1h170.7v305.4H909.5z" transform="rotate(-72 957.1 166.7)"/><path fill="#f6f7f9" d="M792 161.8l52.1-160 286.5 93.1-52 160z"/><circle cx="874.9" cy="90.4" r="31.4" fill="#cbcbcb" opacity=".2"/><path fill="#cbcbcb" d="M950 84.7l2.7-8.1 129.9 42.2-2.7 8.2zM943.2 105.5l2.7-8.2 66.2 21.6-2.7 8.1zM936.4 126.4l2.6-8.2 107.1 34.8-2.7 8.2zM929.7 147.2l2.6-8.2 130 42.3-2.7 8.1z" opacity=".2"/><path fill="#cbcbcb" d="M1011.3 215.5l5.1-15.8 36 11.7-5.1 15.8z" opacity=".5"/><path fill="url(#h)" d="M968.5 513.4a9.1 9.1 0 0 0 0-1c0-.4-.2-.7-.3-1 0-.7-.2-1.4-.4-2l-.2-1a25.4 25.4 0 0 0-5-9.6l-.4-.5-.8-.8a19.7 19.7 0 0 0-2.9-2.4l-.8-.5a4.4 4.4 0 0 0-1.9-.6l-4.1-.4-5.7-.6-20.3-7.9-.8.3a46 46 0 0 1-1.5-5 4.5 4.5 0 0 0 1.6-1.2 3.6 3.6 0 0 0 1.1-1.4c.5-1.2-.4-3.7-.2-5.1.3-2.3 1.5-4.5 2.5-6.6 2-4.5 3.6-9.4 3.3-14.3s-2.5-10-6.6-12.7c-2.2-1.4-4.7-2.2-7-3.5-1.7-1-3.2-2.3-4.9-3.5a28.3 28.3 0 0 0-28-2c-4.1 2.1-7.7 5.2-11.7 7.7s-8.6 4.4-13.3 3.6a3.3 3.3 0 0 0-.1.6h-.4c-.8 2.2 1.1 4.3 3 5.8 3.4 2.8 7.3 5.7 11.8 5.8 1.7 0 3.5-.4 5.1.3a4.7 4.7 0 0 1 1 .6 22.3 22.3 0 0 0 7 22.2l-10.3-3.7-1.1.7-14.4-9.6S833 453.7 825 470s34.7 7.9 34.7 7.9l9.1 5a8.3 8.3 0 0 0 1 5.5l24.9 15.4c-5 1.5-13.3 4-14.8 4-2.1 0-8 2-11.7 10.5s-17 49.3-28.8 56-42.7 52.6-42.7 52.6l.2.3-1.6.5a32.8 32.8 0 0 0-16.1 12.1 5.1 5.1 0 0 0 3.6 8.1c12.2 1.6 18.9-4 22-8.3l.7-.8a4.3 4.3 0 0 0 3 .1l14.9-12s-11.7 11.5-4.8 22l-.6.7a167 167 0 0 0-25 54.4s-6.4 4.7-6.9 23.6-7 49.3-7 49.3-4.2 36.3-1.5 47.3l.8 1-.6.8c-2.3 2.6-6.5 6-11.4 5-7.5-1.5-7.5 11.6 3.2 12.6 6.8.7 20.3 3.8 29 5.9a6.1 6.1 0 0 0 7.7-6.6 55.4 55.4 0 0 0-3.2-14.4l-.3-.7.9-1s0-23 3.7-29.3c0 0 10.2-47.8 9.6-59.9-.4-9.4 26.3-46.2 38-61.7l-.2-.6 4.9-6.4 9 57.2s4.3 12.6 9.6 19.4c0 0 23 43.6 25.6 57.2a43 43 0 0 0 8 18.8l-.6.7c-2.4 2.2-6 4.4-10 3.6-7.5-1.6-7.5 11.5 3.1 12.6 6.9.7 20.4 3.7 29.1 5.8a6.1 6.1 0 0 0 7.6-6.5 47.3 47.3 0 0 0-4-16.3 11.3 11.3 0 0 0-.7-1 5.6 5.6 0 0 0 2.2-1.5s-14-33-14-42c0 0-5.8-34-25.5-46.7 0 0 1.9-42.6 7.5-66.4l.4-1.7a158.2 158.2 0 0 0 15.6-3.2l.5-15.8 2.7 12.6 29.8-18.3-.8-8.4A721.2 721.2 0 0 0 953 612c0-.7-.2-1.4-.3-2l-1.3-8.6-.5-3.1-.8-4c0-.6-.2-1.3-.4-2l-.4-1.8-.4-1.8-.2-.8-.5-1.7a30 30 0 0 1-1-6.9v-2.8c0-1 0-1.8.2-2.7 0-.5.2-1 .3-1.4a30.5 30.5 0 0 1 1.5-5.3l1-2.6a268.9 268.9 0 0 0 4.8-9.9l1.6-3.6a158 158 0 0 0 11.7-33l.3-2.4a16 16 0 0 0 0-2.2z" transform="translate(-33.5 -30.4)"/><path fill="#ae6e79" d="M845.9 451.6l-17.6-12s-28-10.3-35.7 5.8 33.6 7.7 33.6 7.7l17.6 9.8z"/><path fill="#f9fafb" d="M655.1 550.2l91-141.5 220.3 141.6-91 141.6z"/><path fill="#b7b6cc" d="M687.7 540.4l25.6-40.2 9.4 6-25.5 40.2zM718 548.5l56-88.2 8.6 5.5-56 88.3zM736.4 560.2l56-88.2 8.8 5.5-56 88.2zM755 572l56-88.2 8.7 5.5-56 88.2zM774.1 589l56.5-87.7 8.6 5.6-56.4 87.7z"/><path fill="#fff" d="M792 595.5l56-88.2 8.7 5.5-56 88.2zM810.5 607.3l56-88.2 8.7 5.5-56 88.2z"/><path fill="#b7b6cc" d="M888.3 557.2l14.5-22.9 22.9 14.6-14.6 22.8z"/><path fill="#bebed0" d="M898 814.2c-8.6-2-21.6-5-28.3-5.8-10.4-1-10.4-14-3.1-12.4 4 .9 7.4-1.3 9.7-3.5a22.8 22.8 0 0 0 2-2.2 6 6 0 0 1 3.4-2c3.9-.9 12-2.2 16.9.5a7.3 7.3 0 0 1 2.7 3 48 48 0 0 1 4 16 6 6 0 0 1-7.4 6.4zM767 819.4c-8.4-2-21.5-5.1-28.2-5.8-10.3-1-10.3-14-3-12.4 4.7 1 8.7-2.4 11-4.9l.7-.8a6 6 0 0 1 3.4-2c3.9-.9 12-2.2 16.9.5 1.5.8 2.6 2.5 3.5 4.7a56 56 0 0 1 3.1 14.3 6 6 0 0 1-7.3 6.4z"/><path d="M771.3 798.7c-12.3 12.7-22.9-.2-24.5-2.4l.7-.8a6 6 0 0 1 3.4-2c3.9-.9 12-2.2 16.9.5 1.5.8 2.7 2.5 3.5 4.7zM901.3 791.7c-5.3 3.7-23.3 2.8-23.3 2.8a16.9 16.9 0 0 1-1.7-2 22.8 22.8 0 0 0 2-2.2 6 6 0 0 1 3.4-2c3.9-.9 12-2.2 16.9.5a7.3 7.3 0 0 1 2.7 3z" opacity=".1"/><path fill="#5c5c8e" d="M902.3 789.3C898.7 794 878 793 878 793s-6.2-6.2-8.8-19.6-24.9-56.4-24.9-56.4a81.3 81.3 0 0 1-9.3-19.1l-8.8-56.4s-42.4 55.8-41.8 67.7-9.4 59-9.4 59c-3.6 6.3-3.6 29-3.6 29-13.4 14-24.8-2.5-24.8-2.5-2.6-11 1.5-46.6 1.5-46.6s6.3-30 6.8-48.6 6.7-23.3 6.7-23.3a165.9 165.9 0 0 1 24.3-53.6c3.1-4.5 5.2-7 5.2-7l83.8 10a52.8 52.8 0 0 0-3.6 11C865.8 660 864 702 864 702c19.1 12.4 24.8 46 24.8 46 0 8.7 13.5 41.3 13.5 41.3z"/><g opacity=".1"><path d="M821.6 648.3l-1-7s-42.5 56-42 67.8-9.3 59-9.3 59c-3.6 6.3-3.6 29-3.6 29a17.7 17.7 0 0 1-8 5.2c4 1.1 9 .3 14.2-5.2 0 0 0-22.7 3.6-29 0 0 9.9-47 9.4-59-.4-9.3 25.5-45.5 36.7-60.8z"/><path d="M889.3 748s-5.6-33.7-24.8-46c0 0 1.8-42.1 7.3-65.5a52.7 52.7 0 0 1 3.6-11.1l-83.8-9.8-.6.6 78.2 9.2a52.8 52.8 0 0 0-3.6 11.1c-5.5 23.4-7.3 65.5-7.3 65.5 19.2 12.4 24.8 46 24.8 46 0 8.7 13.5 41.3 13.5 41.3-2.1 2.8-10.2 3.5-16.5 3.7 5 .1 19.7.2 22.7-3.7 0 0-13.5-32.6-13.5-41.4z"/></g><path fill="#ae6e79" d="M775.6 608.3a18.9 18.9 0 0 1-2.5 4.3c-3.1 4.2-9.6 9.7-21.4 8.2a5 5 0 0 1-3.5-8 31.9 31.9 0 0 1 15.6-12 28.5 28.5 0 0 1 6.6-1.4z"/><path fill="#42383c" d="M884.8 463.6l-41.5-15.2s-11.9 6.3-7.2 15l40.4 25.4z"/><path d="M885 463.8l-41.5-15.2s-12 6.2-7.3 15l40.4 25.4z" opacity=".1"/><path fill="#ae6e79" d="M886.2 438.6s-.5 24.3 10.4 32.6-31.6 13-31.6 13 6.8-24.9 0-37.8 21.2-7.8 21.2-7.8z"/><path d="M874.9 625.4a52.8 52.8 0 0 0-3.6 11c-50 7.7-84.9-13.1-84.9-13.1a14 14 0 0 1-.5-1c3.1-4.4 5.2-6.8 5.2-6.8zM775.6 608.3a18.9 18.9 0 0 1-2.5 4.3c-4.8-.8-8.6-10-9.3-11.8a28.5 28.5 0 0 1 6.6-1.3z" opacity=".1"/><path fill="#42383c" d="M890.4 460.3l-18.6 6.8-7.8 10.3s-16 5.2-18.1 5.2-7.8 2-11.4 10.3-16.5 48.7-28 55.4-41.3 51.7-41.3 51.7 5.2 14 11.4 11.9L791 600s-11.4 11.4-4.7 21.7c0 0 42.4 25.4 100.9 9.8l.5-15.5 2.6 12.5 29-18.1S916.8 577 912 560a30.7 30.7 0 0 1 2-21.4c7.5-15.7 19.1-41.8 17.7-51.4-1.7-11.2-8-16-10.4-17.5a4.3 4.3 0 0 0-1.8-.6l-9.5-1z"/><path d="M858.6 512.3s-10.4 48.1-21.8 55.9-41.8 32.6-42.9 36.7" opacity=".1"/><path fill="#42383c" d="M854 510.8s-10.4 48-21.8 55.8-42 32.6-43 36.8"/><path d="M863.7 477.2s35.7-12 46-8.8" opacity=".1"/><g opacity=".1"><path d="M914 538.6c7.6-15.7 19.2-41.8 17.8-51.3-1.7-11.3-8-16.2-10.5-17.6a4.3 4.3 0 0 0-1.8-.6l-4-.4a4 4 0 0 1 1.2.5c2.4 1.4 8.8 6.3 10.4 17.5 1.4 9.6-10.2 35.7-17.7 51.4a30.7 30.7 0 0 0-2 21.4c4.7 17 7.3 50.3 7.3 50.3l-25 15.6.7 3 29-18s-2.6-33.5-7.3-50.4a30.7 30.7 0 0 1 2-21.4zM905.4 467.6l4.5.4-19.5-7.6-1.8.6 16.8 6.6z"/></g><path d="M854 561s16-8.8 21.1-6.8 24.3-.5 24.3-.5M884.5 445c-.6-5.1 1.8-4.3 1.8-4.3s-28-5.2-21.2 7.8a29.6 29.6 0 0 1 2.8 11.3h.3c7.7 0 12.3-8.7 16.3-14.7z" opacity=".1"/><circle cx="868.1" cy="435.5" r="22.2" fill="#ae6e79"/><path d="M892.5 442.1c2-4.4 3.5-9.2 3.2-14s-2.4-9.9-6.5-12.6c-2-1.4-4.5-2.1-6.7-3.4-1.7-1-3.1-2.3-4.8-3.5a27.1 27.1 0 0 0-27-2c-4.1 2-7.6 5.1-11.4 7.6s-8.4 4.3-13 3.6c-.7 2.2 1.2 4.3 3 5.8 3.3 2.7 7 5.5 11.4 5.6 1.7 0 3.4-.3 5 .4a7.2 7.2 0 0 1 2.5 2.4 46.6 46.6 0 0 1 5.3 9 7.4 7.4 0 0 0 2.4 3.4c2 1.3 4.6.2 7 .1 3.6-.1 7 2.2 9.7 4.7s5.3 5.3 8.7 6.6c2.6 1 7.8 1 9-2.1.5-1.2-.4-3.7-.2-5.1a24.5 24.5 0 0 1 2.4-6.5z" opacity=".1"/><path fill="#42383c" d="M893 441.6c2-4.5 3.4-9.3 3.2-14.1s-2.4-9.8-6.5-12.5c-2-1.4-4.5-2.2-6.7-3.5-1.7-1-3.2-2.3-4.8-3.4a27.1 27.1 0 0 0-27-2c-4.1 2-7.6 5.1-11.5 7.6s-8.4 4.3-12.9 3.6c-.7 2.1 1.2 4.3 3 5.7 3.2 2.8 7 5.6 11.4 5.7 1.6 0 3.4-.3 5 .4a7 7 0 0 1 2.5 2.3 46 46 0 0 1 5.3 9 7.4 7.4 0 0 0 2.3 3.5c2 1.2 4.6.2 7 0 3.7 0 7 2.3 9.7 4.7s5.4 5.3 8.8 6.7c2.6 1 7.7.9 9-2.2.5-1.1-.4-3.6-.2-5a24.5 24.5 0 0 1 2.3-6.5z"/><path d="M732 770a10.3 10.3 0 0 1-6.7 2.3l-446.8-1.9a13.8 13.8 0 0 1-3-10.4l44.1-361.2 27.7-.3a10.5 10.5 0 0 1 10.2 7.7l5.2 19.1A10.5 10.5 0 0 0 373 433l110.5-2.6a10.5 10.5 0 0 0 10.2-10.5v-12.6a10.5 10.5 0 0 1 10.3-10.5l153-1.6a10.5 10.5 0 0 1 10.5 8.5l67.7 354 .4 2.2a10.4 10.4 0 0 1-3.7 10.1z" opacity=".1"/><path fill="#e6e8ee" d="M652 400.2l-153 1.6a10.5 10.5 0 0 0-10.3 10.5v12.6a10.5 10.5 0 0 1-10.2 10.5L368 438a10.4 10.4 0 0 1-10.3-7.7l-5.2-19a10.4 10.4 0 0 0-10.2-7.8l-147.6 1.6a10.4 10.4 0 0 0-10.2 12.2l59.4 349.4a10.5 10.5 0 0 0 10.2 8.7l466.2 2a10.5 10.5 0 0 0 10.3-12.4l-68.1-356.3a10.4 10.4 0 0 0-10.4-8.5z"/><path fill="#f6bac2" d="M867.7 161l-.8 8.8.6 15.8-1.7 26.5s-.3 11.7-6.8 17.1L842.2 255h-.1l-6.3 3-9.6 1-5-12 3.3-13.3 1.8-2.5.5-.6c2-2.2 9.7-10.2 15.9-12.6 0 0 4-3 3.3-7.7s5.6-29.7 5.6-29.7 4-16.5 3-18.2 0-38.1 13.7-38.7-.6 37.2-.6 37.2z"/><ellipse cx="151.4" cy="700.9" fill="#cbcbcb" opacity=".1" rx="16.2" ry="2.2"/><ellipse cx="89.3" cy="707.2" fill="#cbcbcb" opacity=".1" rx="16.2" ry="2.2"/><ellipse cx="16.2" cy="698.6" fill="#cbcbcb" opacity=".1" rx="16.2" ry="2.2"/><ellipse cx="114.2" cy="725.1" fill="#cbcbcb" opacity=".1" rx="11.5" ry="1.6"/><ellipse cx="49.8" cy="723.5" fill="#cbcbcb" opacity=".1" rx="11.5" ry="1.6"/><path fill="#cbcbcb" d="M89 706.7s22.7-74.5-3.6-104.4a49.5 49.5 0 0 0-52-16.9 18.5 18.5 0 0 0-11.9 10c-3.5 7.5-2.9 19.7 21.8 34 41.3 24 43.9 56.7 43.9 56.7z"/><path fill="none" stroke="#565987" stroke-miterlimit="10" d="M37 596s67 21 52 110.7M76.1 603.5S67 609.7 70 619M43.7 609s5.7-5.7 12.5-2.5M70.2 637.9s10-5 12.5 1.3M94.7 648.4s-7.4-.6-7.6 3"/><path fill="#cbcbcb" d="M90 707.3s-26.7-54.2-34-53c-3.5.5-5.1 4-5.8 7.4a21.8 21.8 0 0 0 1.4 13.2c3.8 8.7 14 25.1 38.3 32.4z"/><path fill="none" stroke="#565987" stroke-miterlimit="10" d="M56.2 664.6s28 40.5 33.3 42.3M53.6 670.9h6.5M61.4 685.7l10.2.5M67.6 673.9l-1.1 5.3M78.5 690.1l-.2 4.8"/><path fill="#cbcbcb" d="M89.1 707.3s26.6-54.2 34-53c3.4.5 5 4 5.8 7.4a21.8 21.8 0 0 1-1.5 13.2 58.4 58.4 0 0 1-38.3 32.4z"/><path fill="none" stroke="#565987" stroke-miterlimit="10" d="M122.9 664.6s-28 40.5-33.4 42.3M125.4 670.9h-6.5M117.6 685.7l-10.2.5M111.4 673.9l1.1 5.3M100.5 690.1l.2 4.8"/><path fill="#cbcbcb" d="M43.4 720a4.6 4.6 0 0 1-1.5-2.4 2 2 0 0 1 1-2.3c1-.4 2 .3 2.9 1s1.7 1.4 2.7 1.3a4.1 4.1 0 0 1-1.3-4 1.6 1.6 0 0 1 .3-.7c.6-.6 1.6-.3 2.2.1 2 1.5 2.6 4.3 2.6 6.8a12.9 12.9 0 0 0 0-2.8 2.9 2.9 0 0 1 1.2-2.4 3.1 3.1 0 0 1 1.6-.4 3.3 3.3 0 0 1 2.5.7 2.6 2.6 0 0 1 0 3.2 10.2 10.2 0 0 1-2.7 2.1 6 6 0 0 0-2 1.9 1.3 1.3 0 0 0 0 .3h-6a16.1 16.1 0 0 1-3.5-2.5zM144.8 698.1a4.5 4.5 0 0 1-1.5-2.3 2 2 0 0 1 1-2.3c1-.4 2 .3 2.9 1s1.7 1.5 2.7 1.3a4.1 4.1 0 0 1-1.3-3.9 1.6 1.6 0 0 1 .4-.8c.5-.5 1.5-.3 2.2.2 2 1.4 2.6 4.2 2.6 6.7a13 13 0 0 0 0-2.8 2.9 2.9 0 0 1 1-2.4 3.2 3.2 0 0 1 1.6-.4 3.3 3.3 0 0 1 2.6.7 2.6 2.6 0 0 1-.1 3.2 10 10 0 0 1-2.7 2.1 6 6 0 0 0-2 1.9 1.6 1.6 0 0 0 0 .3h-5.7a16 16 0 0 1-3.7-2.5zM111 720a4.7 4.7 0 0 1-1.5-2.4 2 2 0 0 1 1-2.3c1-.4 2 .3 2.9 1s1.7 1.5 2.7 1.3a4.2 4.2 0 0 1-1.3-3.9 1.6 1.6 0 0 1 .4-.7c.5-.6 1.5-.4 2.2 0 2 1.5 2.6 4.3 2.6 6.8a13 13 0 0 0 0-2.7 2.9 2.9 0 0 1 1-2.5 3 3 0 0 1 1.6-.4 3.3 3.3 0 0 1 2.6.8 2.6 2.6 0 0 1 0 3.1 10.2 10.2 0 0 1-2.8 2.2 6 6 0 0 0-1.9 1.8 1.3 1.3 0 0 0-.1.3h-5.8a16.3 16.3 0 0 1-3.6-2.5zM15.1 675.8s-2.1 2.9 1 7.2 5.8 7.9 4.8 10.5c0 0-4.8-8-8.7-8s-1.3-5 3-9.7z"/><path d="M15.1 675.8a3.6 3.6 0 0 0-.4 1c-3.8 4.4-5.8 8.6-2.2 8.7 3.4 0 7.5 6.1 8.5 7.7a3.6 3.6 0 0 1-.1.3s-4.8-8-8.7-8-1.3-5 3-9.7z" opacity=".1"/><path fill="#ffd037" d="M11.1 679.4c0 1 .1 1.9.3 1.9s.2-.9.2-1.9-.1-.5-.3-.5-.2-.5-.2.5z"/><path fill="#ffd037" d="M9.7 680.6l1.7.7c0-.1-.5-.6-1.4-1.1s-.6-.1-.6 0-.5 0 .3.4z"/><path fill="#cbcbcb" d="M26.6 675.8s2.2 2.9-1 7.2-5.8 7.9-4.7 10.5c0 0 4.8-8 8.7-8s1.3-5-3-9.7z"/><path d="M26.6 675.8a3.8 3.8 0 0 1 .5 1c3.8 4.4 5.8 8.6 2.1 8.7-3.4 0-7.5 6.1-8.4 7.7a2 2 0 0 0 0 .3s4.9-8 8.8-8 1.3-5-3-9.7z" opacity=".1"/><path fill="#ffd037" d="M30.7 679.4c0 1-.1 1.9-.3 1.9s-.2-.9-.2-1.9.1-.5.2-.5.3-.5.3.5z"/><path fill="#ffd037" d="M32 680.6c-.8.5-1.6.8-1.7.7s.6-.6 1.5-1.1.5-.1.6 0 .5 0-.4.4z"/><path fill="#a8a8a8" d="M30 693.2s-6.1-.2-8-1.5-9.3-2.9-9.7-.8S3 701.3 10 701.4s16-1.1 17.8-2.2 2.2-6 2.2-6z"/><path d="M9.9 700.6c6.8 0 16-1 17.7-2.2 1.4-.8 2-3.8 2.2-5.2h.2s-.4 4.9-2.2 6-11 2.2-17.8 2.1c-2 0-2.7-.7-2.6-1.7.2.6 1 1 2.5 1z" opacity=".2"/><circle cx="33.9" cy="126.7" r="21.6" fill="#cbcbcb" opacity=".1"/><circle cx="1074" cy="299.6" r="21.6" fill="#cbcbcb" opacity=".1"/><circle cx="685.2" cy="58" r="21.6" fill="#cbcbcb" opacity=".1"/><circle cx="77.2" cy="246" r="36.3" fill="#cbcbcb" opacity=".1"/><path fill="#f6f7f9" d="M430.2 588.6l-1.3-1.2a1.4 1.4 0 0 1 0-2l11.3-11.3a1.4 1.4 0 0 1 2 0l11.2 11.3a1.4 1.4 0 0 1 0 2l-1.3 1.2a1.4 1.4 0 0 1-2 0l-6.6-7v16.6a1.4 1.4 0 0 1-1.4 1.4h-1.9a1.4 1.4 0 0 1-1.4-1.4v-16.5l-6.6 7a1.4 1.4 0 0 1-2 0z"/><path fill="#f6f7f9" d="M441.1 564a22.8 22.8 0 1 1-22.8 22.7 22.8 22.8 0 0 1 22.8-22.8m0-3a25.8 25.8 0 1 0 25.8 25.8 25.8 25.8 0 0 0-25.8-25.8z"/></svg>