<svg xmlns="http://www.w3.org/2000/svg" xmlns:xlink="http://www.w3.org/1999/xlink" viewBox="0 0 184 219"><defs><style>.cls-1{fill:#1fab82;}.cls-2{fill:url(#linear-gradient);}.cls-3{fill:#2ee5a8;}.cls-4{fill:#9575cd;}.cls-5{fill:#a68ae2;}</style><linearGradient id="linear-gradient" x1="92" y1="82.55" x2="92" y2="230.69" gradientUnits="userSpaceOnUse"><stop offset="0" stop-color="#2ee5a8"/><stop offset="1" stop-color="#1fab82"/></linearGradient></defs><title>Asset 4</title><g id="Layer_2" data-name="Layer 2"><g id="Layer_1-2" data-name="Layer 1"><path class="cls-1" d="M184,127A92,92,0,1,0,32.31,197a73,73,0,1,1,119.38,0A91.82,91.82,0,0,0,184,127Z"/><path class="cls-2" d="M92,82A73,73,0,0,0,32.31,197a92,92,0,0,0,119.38,0A73,73,0,0,0,92,82Z"/><circle class="cls-3" cx="92" cy="41" r="41"/><path class="cls-4" d="M66.16,135.09H44.84a.84.84,0,0,0-.84.84V147h0c0,.13,0,.27,0,.41a11.5,11.5,0,0,0,23,0c0-.14,0-.28,0-.41h0V135.93A.84.84,0,0,0,66.16,135.09Z"/><circle class="cls-5" cx="55.64" cy="147" r="5.41"/></g></g></svg>