<svg xmlns="http://www.w3.org/2000/svg" xmlns:xlink="http://www.w3.org/1999/xlink" viewBox="0 0 184 244.61"><defs><style>.cls-1{fill:#1fab82;}.cls-2{fill:url(#linear-gradient);}.cls-3{fill:#2ee5a8;}.cls-4{fill:#a68ae2;}.cls-5{fill:#9575cd;}</style><linearGradient id="linear-gradient" x1="92" y1="107.61" x2="92" y2="257.09" gradientUnits="userSpaceOnUse"><stop offset="0" stop-color="#2ee5a8"/><stop offset="1" stop-color="#1fab82"/></linearGradient></defs><title>Asset 3</title><g id="Layer_2" data-name="Layer 2"><g id="Layer_1-2" data-name="Layer 1"><path class="cls-1" d="M184,152.61a92,92,0,1,0-151.69,70,73,73,0,1,1,119.38,0A91.79,91.79,0,0,0,184,152.61Z"/><path class="cls-2" d="M92,107.61a73,73,0,0,0-59.69,115,92,92,0,0,0,119.38,0A73,73,0,0,0,92,107.61Z"/><circle class="cls-3" cx="92" cy="66.61" r="41"/><rect class="cls-4" x="41" y="45.5" width="102" height="15.58" rx="2.49" ry="2.49"/><path class="cls-5" d="M50.07,46.09a42.5,42.5,0,0,1,85,0Z"/><path class="cls-5" d="M53.71,46.09a38.86,38.86,0,1,1,77.71,0Z"/><rect class="cls-4" x="84.6" width="14.88" height="24.17" rx="1.47" ry="1.47"/></g></g></svg>