<svg xmlns="http://www.w3.org/2000/svg" width="32" height="32" viewBox="0 0 438.5 438.5"><path fill="#000" d="M409.1 109.2A218.3 218.3 0 0 0 219.3 0 218.3 218.3 0 0 0 0 219.3a218.3 218.3 0 0 0 219.3 219.3 218.3 218.3 0 0 0 219.3-219.3c0-39.8-9.9-76.5-29.5-110.1zM288.6 306.9c3.7 3.6 5.5 8 5.5 12.9 0 5-1.8 9.2-5.5 12.8l-29 29.1a17.5 17.5 0 0 1-13 5.5c-4.9 0-9.2-1.9-12.8-5.5L104.2 232.1a17.6 17.6 0 0 1-5.4-12.8c0-5 1.8-9.3 5.4-12.9L233.8 76.8c3.6-3.6 8-5.4 12.9-5.4 5 0 9.2 1.8 12.8 5.4l29.1 29.1c3.7 3.6 5.5 8 5.5 12.9 0 5-1.8 9.2-5.5 12.8L201 219.3l87.6 87.6z"/></svg>