<svg xmlns="http://www.w3.org/2000/svg" width="128" height="128" viewBox="0 0 230.49 330.81"><defs><style>.cls-1{fill:#1fab82;}.cls-2{fill:#22c694;}</style></defs><title>Asset 1</title><g id="Layer_2" data-name="Layer 2"><g id="Layer_1-2" data-name="Layer 1"><path class="cls-1" d="M206.39,99.85A93.6,93.6,0,0,0,74,99.85C37.49,136.4,42.21,182.24,74,232.2l55.25,92.41a12.73,12.73,0,0,0,21.85,0l55.25-92.41C233.8,186.66,242.94,136.4,206.39,99.85ZM139.48,201.4a22.85,22.85,0,1,1,22.84-22.84A22.85,22.85,0,0,1,139.48,201.4Z"/><path class="cls-2" d="M199.59,28,6.37,106.66,2.07,96.1A28,28,0,0,1,17.44,59.63L158.83,2.07a28,28,0,0,1,36.46,15.37Z"/><path class="cls-2" d="M107.53,3.17v3a19.45,19.45,0,0,1,16.75,9.47l-63.87,26A19.55,19.55,0,0,1,72.05,19.07L100.18,7.62a19.41,19.41,0,0,1,7.35-1.45v-3m0,0a22.51,22.51,0,0,0-8.48,1.67L70.92,16.29A22.52,22.52,0,0,0,58.55,45.64h0L128.4,17.2h0a22.53,22.53,0,0,0-20.87-14Z"/></g></g></svg>