<svg xmlns="http://www.w3.org/2000/svg" width="24" height="24" viewBox="0 0 511.6 511.6"><path fill="#FFF" d="M506.2 179L360 32.8c-3.6-3.6-7.9-5.4-12.8-5.4s-9.3 1.8-12.9 5.4a17.6 17.6 0 0 0-5.4 12.9v73h-64c-135.7 0-219 38.4-249.8 115.1C5.1 259.3 0 291 0 329c0 31.6 12 74.5 36.3 128.8A673.4 673.4 0 0 0 43 473c1.2 2.5 2.4 4.5 3.7 6.3 2.3 3.2 5 4.8 8 4.8 2.9 0 5.1-1 6.7-2.8 1.6-2 2.5-4.3 2.5-7.2 0-1.7-.3-4.2-.8-7.5a482.2 482.2 0 0 1-2.1-41.8 243 243 0 0 1 5-51.7c3.3-15.3 8-28.4 13.8-39.6a99.3 99.3 0 0 1 22.9-28.8 134 134 0 0 1 30.1-19.9c10.8-5.1 23.4-9.1 38-12 14.5-3 29.2-5 44-6.2s31.4-1.7 50-1.7h64v73c0 5 1.8 9.3 5.4 12.9 3.6 3.6 8 5.4 12.9 5.4 5 0 9.2-1.8 12.8-5.4l146.2-146.2c3.6-3.6 5.4-7.9 5.4-12.8 0-5-1.8-9.3-5.4-12.9z"/></svg>