<svg xmlns="http://www.w3.org/2000/svg" width="24" height="24" viewBox="0 0 511.6 511.6"><path fill="#FFF" d="M496.5 233.8c-30.8-76.7-114.1-115-249.8-115h-64V45.7c0-5-1.8-9.2-5.4-12.9a17.6 17.6 0 0 0-12.8-5.4c-5 0-9.3 1.8-12.9 5.4L5.4 179A17.6 17.6 0 0 0 0 192c0 5 1.8 9.2 5.4 12.8L151.6 351c3.6 3.6 8 5.4 12.9 5.4s9.2-1.8 12.8-5.4c3.6-3.6 5.4-7.9 5.4-12.8V265h64c18.6 0 35.3.5 50 1.7 14.8 1.1 29.5 3.2 44 6.1 14.6 3 27.3 7 38 12.1a134.4 134.4 0 0 1 30.1 19.9c9.4 8 17 17.7 22.9 28.8a155.4 155.4 0 0 1 13.8 39.6c3.4 15.2 5 32.4 5 51.6a484.6 484.6 0 0 1-2.1 41.9c-.5 3.3-.7 5.8-.7 7.5 0 2.9.8 5.3 2.4 7.2a8.4 8.4 0 0 0 6.7 2.8c3 0 5.7-1.6 8-4.8 1.3-1.7 2.6-3.8 3.7-6.3a503 503 0 0 0 6.9-15.4c24.1-54.3 36.2-97.2 36.2-128.8 0-37.9-5-69.6-15.1-95z"/></svg>