<svg xmlns="http://www.w3.org/2000/svg" width="995" height="836.7" data-name="Layer 1"><path fill="#f2f2f2" d="M711.3 91.4C626.3 91 550 128 497.5 187a283.4 283.4 0 0 0-213.8-95.7A285.5 285.5 0 0 0 0 384.2 286 286 0 0 0 285 665.4q9 0 18-.6a3111 3111 0 0 1 389 0q9 .6 18 .6a286 286 0 0 0 285-281.2c3.1-160.7-124-292-283.7-292.8z"/><path fill="none" stroke="#3f3d56" stroke-miterlimit="10" d="M657.4 7.5a23 23 0 0 0-19.8 13.8c-5 12 1.4 26 11 34.8s21.8 13.7 33 20.3c15 8.8 28.5 21 36 36.7s8.3 35.2-.5 50.2c-8.2 13.9-23 22.2-37.3 29.9"/><ellipse cx="670" cy="8.5" fill="#57b894" rx="17.5" ry="8.5"/><ellipse cx="684" cy="64.5" fill="#57b894" rx="17.5" ry="8.5"/><ellipse cx="652" cy="73.5" fill="#57b894" rx="17.5" ry="8.5"/><ellipse cx="702" cy="120.5" fill="#57b894" rx="17.5" ry="8.5"/><ellipse cx="737" cy="120.5" fill="#57b894" rx="17.5" ry="8.5"/><path fill="none" stroke="#3f3d56" stroke-miterlimit="10" d="M749.9 286.2a23 23 0 0 0-24 3.7c-9.7 8.5-10.2 24-5.5 36s13.5 22 20.6 32.8c9.5 14.6 16.1 31.6 15.9 49s-8.2 35.1-22.8 44.7c-13.5 8.8-30.5 9.6-46.7 10.2"/><ellipse cx="863.2" cy="324.4" fill="#57b894" rx="8.5" ry="17.5" transform="rotate(-63.6 786.5 391.2)"/><ellipse cx="850.9" cy="380.8" fill="#57b894" rx="8.5" ry="17.5" transform="rotate(-63.6 774.1 447.6)"/><ellipse cx="818.2" cy="374.6" fill="#57b894" rx="8.5" ry="17.5" transform="rotate(-63.6 741.4 441.5)"/><ellipse cx="842.1" cy="439" fill="#57b894" rx="8.5" ry="17.5" transform="rotate(-63.6 765.4 505.8)"/><ellipse cx="873.5" cy="454.5" fill="#57b894" rx="8.5" ry="17.5" transform="rotate(-63.6 796.7 521.3)"/><path fill="none" stroke="#3f3d56" stroke-miterlimit="10" d="M298 366.4a23 23 0 0 1 23.5-5.5c12.3 4.3 18.5 18.5 18.6 31.5s-4.5 25.4-7 38c-3.5 17.1-3.4 35.4 3.2 51.4S357 511.5 374 515c15.8 3.2 32-2.3 47.2-7.8"/><ellipse cx="392.8" cy="408.1" fill="#57b894" rx="17.5" ry="8.5" transform="rotate(-48.1 306.1 507.3)"/><ellipse cx="425.1" cy="456" fill="#57b894" rx="17.5" ry="8.5" transform="rotate(-48.1 338.4 555)"/><ellipse cx="453.2" cy="438.2" fill="#57b894" rx="17.5" ry="8.5" transform="rotate(-48.1 366.5 537.3)"/><ellipse cx="454.8" cy="506.8" fill="#57b894" rx="17.5" ry="8.5" transform="rotate(-48.1 368 606)"/><ellipse cx="431.4" cy="532.8" fill="#57b894" rx="17.5" ry="8.5" transform="rotate(-48.1 344.7 632)"/><path fill="#6c63ff" d="M700.5 251l-2.8 20.1-17 124.5L653 599.4l-7 51a16.3 16.3 0 0 1-16 14.1H444.1a16.3 16.3 0 0 1-16.1-14l-7.1-51-28.3-204L375.4 271l-2.8-20a16.3 16.3 0 0 1 16-18.5h295.8a16.3 16.3 0 0 1 16 18.5z"/><rect width="290" height="54" x="392" y="178.5" fill="#2f2e41" rx="16.3"/><path d="M682 204v12.2a16.3 16.3 0 0 1-16.3 16.3H408.3a16.3 16.3 0 0 1-16.3-16.3V204a1527 1527 0 0 0 290 0z" opacity=".1"/><circle cx="459.5" cy="343" r="44" fill="#2f2e41"/><circle cx="615.5" cy="343" r="44" fill="#2f2e41"/><circle cx="457.5" cy="343" r="12" fill="#fff"/><circle cx="475.5" cy="320" r="5" fill="#fff"/><circle cx="615.5" cy="343" r="12" fill="#fff"/><circle cx="633.5" cy="320" r="5" fill="#fff"/><path d="M699.6 243a16.3 16.3 0 0 0-1.7-3.2l-.6-.9-.2-.3a16.4 16.4 0 0 0-2.1-2.1 16.3 16.3 0 0 0-2.5-1.8l-1-.6-.6-.2-1-.4-.4-.2-1.5-.4h-.3l-1.3-.3h-.4l-1.6-.1H388.7a16.3 16.3 0 0 0-16.1 18.5l.4 3.4 2.4 16.6 17.3 124.6L415.4 559l12.7 91.4a16.3 16.3 0 0 0 16 14h8.9a16.2 16.2 0 0 1-1-3.5l-8.5-61.6h209.4l27.8-203.8H415.2l-17-122.6a1718.4 1718.4 0 0 0 299.5-1.9l2.8-20.1a16.1 16.1 0 0 0-1-8z" opacity=".1"/><path fill="#2f2e41" d="M723.7 259.5a1721 1721 0 0 1-373.4 0 16.3 16.3 0 0 1-16.3-16.3v-21.4a16.3 16.3 0 0 1 16.3-16.3 1530.2 1530.2 0 0 0 373.4 0 16.3 16.3 0 0 1 16.3 16.3v21.4a16.3 16.3 0 0 1-16.3 16.3zM660.5 592h-250a9.4 9.4 0 0 1-9.3-8l-27-170a9.4 9.4 0 0 1 9.3-11h305.8a9.4 9.4 0 0 1 9.3 11l-28.8 170.1a9.4 9.4 0 0 1-9.3 7.9z"/><path fill="#6c63ff" d="M632 470.7a6.7 6.7 0 0 1 3.7 11.1c-15.8 17-54.3 52.2-99.2 52.2s-83.4-35.3-99.2-52.2a6.7 6.7 0 0 1 3.6-11 528.2 528.2 0 0 1 191.2 0z"/><path fill="#fff" d="M586.5 481.3a6.7 6.7 0 0 1 3.6 11.3c-10.7 10.5-30.7 26.3-53.6 26.3s-42.9-15.8-53.6-26.3a6.7 6.7 0 0 1 3.6-11.3 305.2 305.2 0 0 1 100 0z"/><path fill="none" stroke="#3f3d56" stroke-miterlimit="10" d="M126.5 665h691"/><path fill="#a0616a" d="M183.7 572.4v28.2l14.4 16.7s6-2.3 6-17.5l2.4-22z"/><path fill="#a0616a" d="M198.1 600.6s-23.6-16-24.3-21.3-34.2-29.7-29-14.5 22.1 22 22.1 22 13 35 24.4 34.3 11.4-15.2 6.8-20.5z"/><path fill="#3f3d56" d="M211.8 771.6l2.3 13.7-12.2-3v-10.7h9.9z"/><path fill="#2f2e41" d="M209.5 779.2s-14-8.3-14.6-4.5-6.7 18.2-9.7 19.7-6.9 18.3 0 17.5c5.3-.6 24.7-10.7 33.2-15.3a4.6 4.6 0 0 0 2-6 9.6 9.6 0 0 1-1-3c0-1.5-9.9-8.4-9.9-8.4z"/><path fill="#2f2e41" d="M216.3 624.9s-55.5 25.9-50.1 45.6 25 103.4 25 103.4 22.1 5.3 23.6 0-14.4-88.2-12.9-91.2 29.7-22.8 29.7-22.8l57.7-24.4-24.3-22.8z"/><path fill="#3f3d56" d="M174.5 776.2l-6.8 17.5 12.2 5.3 7.6-13.7-13-9.1z"/><path fill="#a0616a" d="M215.6 500.2s6.8 9.1 1.5 13.7-1.5 21.3-1.5 21.3l6.8 19 27.4-5.3v-31.2l-1.5-15.2s-13.7-13-15.2-22.8-17.5 20.5-17.5 20.5z"/><path d="M215.6 500.2s6.8 9.1 1.5 13.7-1.5 21.3-1.5 21.3l6.8 19 27.4-5.3v-31.2l-1.5-15.2s-13.7-13-15.2-22.8-17.5 20.5-17.5 20.5z" opacity=".1"/><path fill="#2f2e41" d="M261.2 618.8s-35.7 39.6-35.7 41-19 32.8-19 32.8l-37.3 82.8s14.5 19.8 20.5 18.3 49.5-89.7 49.5-89.7 7.6-19.8 28-24.4 36.6-20.5 29-38.7-35-22-35-22z"/><circle cx="215.6" cy="481.2" r="24.3" fill="#a0616a"/><path fill="#f2f2f2" d="M216.3 520.7s3 17.5 6.1 19 5.3 6.9 12.2-.7 13-22.8 13-22.8L271 545l2.3 79.8s-26.6-6.8-35 0-26.6 6-26.6 6l3.8-15.1-3-25.9.7-23.5.8-16.8z"/><path fill="#3f3d56" d="M219 508s-10.3 5.1-11 8.2-14.5 9.1-14.5 9.1-5.3 5.3-5.3 8.4 18.3 38 18.3 38 3.8 23.6 2.2 28.1 3 22 3 22l-9 10.7h8.3s9.1-4.6 9.1-6.8-1.5-18.3-2.2-25.1-.8-31.2.7-39.6.8-30.4.8-35.7-.4-17.4-.4-17.4zM242.6 496.4s3.4.8 13.3 3.8 25 7.6 30.4 13.7a94.2 94.2 0 0 1 9.9 14.4l-3 54.8s6 11.4 5.3 17.5-6.9 6.8-2.3 19.7 13.7 24.4 5.3 25.9-30.4-3.8-40.3-.8-21.3-11.4-21.3-11.4 15.2 1.5 13-4.5-27.4-74.5-22.1-89.7 11.8-43.4 11.8-43.4z"/><path fill="#3f3d56" d="M192 529.9l-3.8 3s-10.6 38-7.6 41.8 27.4 12.2 28.9 6.9-17.5-51.7-17.5-51.7z"/><path fill="#a0616a" d="M304.5 556.5s11.4 32.7 11.4 41.8-1.5 62.3-1.5 62.3-.7 22.8-16.7 13.7 0-15.2 0-15.2-.8-60-6.8-68.4-8.4-20.5-8.4-20.5z"/><path fill="#2f2e41" d="M179.9 793s-11.5-6.2-13.7-1.6-14.5 29.7-13 32.7 10 15.2 19.8 12.2 10.7-19 10.7-19l.7-18.3zM210.8 475.3c1.7.8 3.7 1.3 4.7 2.8.8 1.1.9 2.6 1.5 3.9a5.4 5.4 0 0 0 7 2.5 6 6 0 0 1 2.4-3.7 3.6 3.6 0 0 1 4.3.2c1.5 1.5 1 4.1 1.7 6.2a13 13 0 0 0 2.8 3.8c1.7 1.9 3 4.1 5 5.7s5 2.2 7 .7c1.7-1.4 2-3.8 1.6-5.9s-1.4-4-2-6c-1.8-6.8 1.2-14 .2-20.8-1.1-8.8-8.6-15.8-17-18.8a20 20 0 0 0-11-1.2c-3.8.9-7 3.3-10.7 4.7-4 1.5-8.2 1.8-12.3 2.6s-8.3 2.6-10.7 6c-1.7 2.4-2.2 5.4-3.6 8a14.3 14.3 0 0 1-7.3 6.5l4.4-.2a12.8 12.8 0 0 1-3.5 5 9.3 9.3 0 0 0 6-.8 6.5 6.5 0 0 1-2.2 4.7c3.3-.1 6.8-.3 9.6-2 1.4-1 2.6-2.2 3.9-3.2 2.7-2 6.2-3 9.5-4 1.8-.5 3.9-1.2 5.5-.1 1.3 1 1.5 2.6 3.2 3.4z"/><path fill="#3f3d56" d="M284.8 519.2l11.4 9.1 15.2 35S290 580 284.8 577.8s-14.5-42.6-14.5-42.6z"/><path fill="#6c63ff" d="M171.4 554.5l-.2 1.4-1.2 8.7-1.9 14-.5 3.6a1.1 1.1 0 0 1-1 1h-13a1.1 1.1 0 0 1-1-1l-.6-3.5-2-14.1-1.1-8.7-.2-1.4a1.1 1.1 0 0 1 1.1-1.2h20.5a1.1 1.1 0 0 1 1.1 1.2z"/><rect width="20.1" height="3.7" x="150" y="549.5" fill="#2f2e41" rx="1.1"/><path fill="#2f2e41" d="M173 555.1a119.2 119.2 0 0 1-25.9 0 1.1 1.1 0 0 1-1-1v-1.6a1.1 1.1 0 0 1 1-1.1 106 106 0 0 0 26 0 1.1 1.1 0 0 1 1 1.1v1.5a1.1 1.1 0 0 1-1 1.1zM168.6 578.2h-17.3a.7.7 0 0 1-.6-.6l-1.9-11.8a.7.7 0 0 1 .7-.7h21.1a.7.7 0 0 1 .7.7l-2 11.8a.7.7 0 0 1-.7.6z"/></svg>