<svg xmlns="http://www.w3.org/2000/svg" width="1009.5" height="789.9" data-name="Layer 1"><defs><linearGradient id="a" x1="318.2" x2="630.4" y1="488.4" y2="488.4" gradientUnits="userSpaceOnUse"><stop offset="0" stop-color="gray" stop-opacity=".3"/><stop offset=".5" stop-color="gray" stop-opacity=".1"/><stop offset="1" stop-color="gray" stop-opacity=".1"/></linearGradient></defs><ellipse cx="354.1" cy="741.3" fill="tomato" opacity=".1" rx="176.1" ry="33.4"/><path fill="tomato" d="M586.5 111.4c-64.7-2.2-126.3-23.1-185.2-46S284.2 17.2 221 5.1C180.4-2.7 133.9-3.8 101.2 18 69.7 39 59.5 75 54 108.7c-4.1 25.2-6.5 51.8 4.7 75.5 7.9 16.4 21.8 30.2 31.4 46 33.5 54.7 9.8 122.1-26.4 175.6-17 25-36.8 49-50 75.6S-5.3 538.7 6.2 566c11.3 27 38.5 47.2 67.9 61.5 59.7 29 130 37.2 198.6 41.9 151.8 10.4 304.4 5.9 456.7 1.4 56.3-1.7 112.9-3.4 168.3-12 30.8-5 62.6-12.6 85-31.2a71 71 0 0 0 16.3-92.8c-31.9-49.5-120-61.8-142.3-115-12.3-29.2.3-61.7 18.1-88.8 38.3-58.2 102.4-109.2 105.7-175.7 2.4-45.7-28.5-91.4-76-113-50-22.7-119.3-19.8-156 17.7-38 38.5-104.7 53.4-161.9 51.4z" opacity=".1"/><path fill="url(#a)" d="M630.4 416.8L599.6 396l15.5-23-81-6.4-29 22.4-36.4-20.4-30.3 3.7-.4-8a225.8 225.8 0 0 0-2.5-24.9l.2-8.5c0-13.1-1.8-30.6-9.6-42.2l1.8-16.2-14.6-17.2a110.4 110.4 0 0 1 8-13.5l1.5-2c19-1.5 34-17 34-36 0-1 0-1.8-.2-2.7v-1l5.5 3 1.2 1.5.1.1.6.7.1.2.7.7.1.2 1.7 1.8a1.8 1.8 0 0 1 .2.2l.7.7.2.2 2 1.6.3.2.8.5.3.2 1 .6.1.1 1.2.6h.2l1 .5.3.1 1 .3.3.1 1.3.3a10.9 10.9 0 0 0 1.4.1h.2a11 11 0 0 0 1.2 0h.2a11.8 11.8 0 0 0 1.5-.2 15.8 15.8 0 0 0 6.3-2.2 5.5 5.5 0 0 0 1.3-1.2c2-2.6-.2-5.5-.2-5.5-.8-1.9-5.9-3.2-5.9-3.2s-16-6.7-16-12-4-32.9-45.3-39.2c0 0-26.8-1.5-34.4 12.9l-.1 1.6c-2.3 1.4-4.1 4.2-6.3 5a10.2 10.2 0 0 0-2.7 1v-.1a2.6 2.6 0 0 0-.6.7 8 8 0 0 0-.8 3 11.3 11.3 0 0 1-1.4 3.7 8 8 0 0 1-.6.9l-.1.3a7.3 7.3 0 0 0 3.4-.6 17 17 0 0 1-1 4 3.3 3.3 0 0 0 3-1.8v-.1l.2-.2a8.4 8.4 0 0 0 .6-1.4h-.1l.6-1.9a3 3 0 0 1 .5-1 2.4 2.4 0 0 1 2-.7l-.4 8.7h.2a11.8 11.8 0 0 1-.9 1.8c-1.4 2.3-4 3.9-4.9 6.4a9.4 9.4 0 0 0-.5 3.8l.2 2.3v-.1c.1 2 .2 3.9-1 5.5-.7 1.1-1.8 2-2.3 3.2a3.1 3.1 0 0 0-.1 1 12.1 12.1 0 0 0 .7 3.3 4.9 4.9 0 0 1 .1 2.3c-.4 2-2.8 3.7-2.7 5.6a2.1 2.1 0 0 0 .1.7 4 4 0 0 0 2.3 2 8.8 8.8 0 0 0 5 1.1 6.7 6.7 0 0 0 2-.6l-2.2 4.7-.4.7s-6.1-4.1-9.7 4.3a18.7 18.7 0 0 0-2.1 5.6 13.4 13.4 0 0 1-.8 2.4 15 15 0 0 1-6.6 6c-7.2 3.2-36.1 39.3-36.6 48.6a54.5 54.5 0 0 1-1.9 10.8 64.2 64.2 0 0 0-1.7 25.5 48.8 48.8 0 0 0 1.8 8.1c3 9.4 5.1 26.8 5.1 26.8l3.3 30.2a86 86 0 0 0 .6 12.5c-3.4 3.9-17 20-11.8 24.4 4 3.4 11 2.9 14.9 2.2a127 127 0 0 0-9.2 32.2c-1 14.4 1.7 33.6 6 41s18.6 26.2 18.6 26.2-.7 26 4.4 35.3 7.2 29 7.2 29 4.7 16.4 2.4 22.5 4.4 11-2.8 15.1-16.3 94.9-16.3 94.9-3.7 59.5 0 62.5a3.8 3.8 0 0 0 .6.4v20s-2.5 4.2 7.9 5c7.1.6 27.3 2 39.3 2.7l9.3.5s22 4.4 31.7 0 27-4.2 24.4-15.8a33 33 0 0 0-1.3-4.6c-2.9-7.2-7.6-8-16.4-10l-1.5-.3c-9.2-1.6-12.3 2.7-17.5-3-4.5-4.8-18.8-10.2-23.7-12l.4-1a7.3 7.3 0 0 1-3.7-1.8l13.2.8 8 .5s18.6 3.7 27 0 22.8-3.6 20.6-13.4a28.2 28.2 0 0 0-1.1-4c-2.4-6-6.5-6.8-14-8.5l-1.2-.2c-7.8-1.4-10.4 2.3-14.8-2.5-3.8-4-15.7-8.6-20-10.1 0-2.3-3-5.4-5-8.6-2.1-3.7 2-16.6 2-16.6l2.3-53.8a10.4 10.4 0 0 1 2.8-.8s10.6-10 8.2-20.8a69.1 69.1 0 0 1-.8-9.8c3.5-3.3 8.3-8 9.7-11 2.2-4.8 0-28 0-28v-88.7l17.7 1.7 16 1.7 5 .5 16 1.6 36.9 3.7 33.2-6.2 14.4-2.8 29.6-5.6v-72.4zm-243.7-240l-2-.2c.7 0 1.4.2 2 .3z" transform="translate(-95.2 -55)"/><path fill="#efb7b9" d="M463.3 408.8c-10 14.3-46 6.7-46 6.7l-27.8-26-3.7-3.6 6.3-13.4 5.4 1.6c18 5.2 74.3 22.6 65.8 34.6z"/><path d="M397.5 374a58.7 58.7 0 0 1-8 15.4l-3.7-3.5 6.3-13.4 5.4 1.5z" opacity=".1"/><path fill="#dce6f2" d="M302 223.4s-25.8 11.4-24.5 39.4a461.1 461.1 0 0 0 5.9 53.7s-5.3 42.1 16.6 53 42 19.7 42 19.7 34.3 3.7 38.5 5.2 17.6-21.7 15.1-25.3-33.8-11.2-37.8-17.3-13.3-9.7-13.3-9.7-9.5-5.8-10.2-11 1.9-9.2 2.5-11.4 2.3-24.4 2.3-24.4 10.8-78.7-37.2-72z"/><path d="M318.9 315.4s-35.3 5.9-31.8 18.2c0 0 12.7-13.3 31.8-18.2zM319.1 320.4s-19.3 15.8-15.5 16.6 15.5-16.6 15.5-16.6zM328.4 325.9s-5.1 10.6-2 9.9 2-10 2-10z" opacity=".1"/><path d="M398.8 375.2l-2.2-.6c.6-2 .8-3.7.3-4.4-2.4-3.6-33.8-11.2-37.8-17.3s-13.3-9.7-13.3-9.7-9.5-5.8-10.2-11 2-9.1 2.6-11.4 2.2-24.4 2.2-24.4 10.8-78.7-37.2-71.9c0 0-25.7 11.4-24.4 39.4a459.9 459.9 0 0 0 5.9 53.7s-5.3 42.1 16.6 53 42 19.7 42 19.7 34.3 3.7 38.5 5.2c1.6.6 4.5-2.4 7.4-6.5l1.6 1.5 27.9 26.1s36 7.6 46-6.7c8.4-12-47.9-29.5-66-34.7z" opacity=".1"/><path fill="#965d7b" d="M287.1 118.4a8.5 8.5 0 0 0-2.7 1c-1 1-1 2.3-1.3 3.6a11.5 11.5 0 0 1-2 4.7 7.2 7.2 0 0 0 3.3-.5 17.1 17.1 0 0 1-1 4 3.2 3.2 0 0 0 3-1.8 19.3 19.3 0 0 0 1.3-3.5 2.9 2.9 0 0 1 .5-1c.9-1.1 2.6-.6 4-.5a6.7 6.7 0 0 0 6.1-3c1.5-2.2 1.6-8-2-8.7-3.8-.6-6 4.6-9.2 5.7z"/><g opacity=".1"><path d="M284.3 120.7l.2-1.5c-1 .9-1 2.3-1.2 3.5a11 11 0 0 1-.6 2.1 11.5 11.5 0 0 0 1.6-4zM284.6 129a16.6 16.6 0 0 0 1-4 7.2 7.2 0 0 1-3.2.5 11.6 11.6 0 0 1-1.1 2 7.1 7.1 0 0 0 3.3-.5 16.6 16.6 0 0 1-1 4 3.3 3.3 0 0 0 3-1.9 7.5 7.5 0 0 0 .6-1.4 3 3 0 0 1-2.6 1.3zM293.4 122.2c-1.4-.2-3.2-.7-4 .4a3 3 0 0 0-.6 1l-.2.8c1-.7 2.5-.3 3.8-.2a6.7 6.7 0 0 0 6-3 5.5 5.5 0 0 0 .7-1.5 6.7 6.7 0 0 1-5.7 2.5z"/></g><path fill="#dce6f2" d="M317.2 201l15.3 18.3-2 18.5-18.4-28.8 5.1-8z"/><path d="M332.5 219.3l-1.9 17.5-.1 1-16.6-26-1.8-2.8.5-.8 4.6-7.2 1.1 1.2 14.2 17.1z" opacity=".1"/><path fill="#efb7b9" d="M340.4 176.2c-5.2 1.4-10 6.5-14.4 12.7a108.7 108.7 0 0 0-7.7 13.3c-1.5 2.9-2.7 5.6-3.7 8l-.7 1.6c-1.8 4.1-2.8 6.9-2.8 6.9S271.6 189 278 187c2.1-.7 4.9-5.2 7.6-10.9l.3-.7c1.8-3.6 3.5-7.7 5-11.5 3-7.9 5.3-14.7 5.3-14.7s60 22.5 44.3 27z"/><path fill="#444053" d="M364 147.6s9.1 16.5 21.4 14.2 7.2-8.9 7.2-8.9z"/><path fill="#a36468" d="M346.4 718.7c-8.1 3.7-26.4 0-26.4 0l-7.7-.5-32.7-2.2c-8.6-.7-6.5-4.2-6.5-4.2v-21.4l42-10.6s16.5 5.6 21 10.6c4.4 4.7 6.9 1 14.6 2.4l1.2.3c7.3 1.7 11.2 2.3 13.6 8.4a28.1 28.1 0 0 1 1.1 3.9c2.2 9.7-12.2 9.6-20.2 13.3z"/><path d="M365.5 701.5a31.3 31.3 0 0 1-4.7 2.4c-5.5 2.5-10.8 5.6-16.3 8s-11.6 4-17.6 3.5c-3.2-.2-6.4-1-9.4 0a21.7 21.7 0 0 0-5.2 2.8l-32.7-2.2c-8.6-.7-6.5-4.2-6.5-4.2v-2.5l1-.1a18.9 18.9 0 0 1 6.2.9l13 3.5a10.3 10.3 0 0 1 5-6.4 16 16 0 0 1 8-1.9c6.8.1 13.2 3.3 19.9 3.6a11 11 0 0 0 5.5-.9l2.6-1.6a19.2 19.2 0 0 1 4.5-1.6 99.8 99.8 0 0 0 13-4.1c1.2-.5 2.6-1.4 2.4-2.6-.2-1.7-2.9-2-3.6-3.5a2 2 0 0 1 .1-1.8l1.2.3c7.3 1.6 11.2 2.3 13.6 8.4z" opacity=".1"/><path fill="#a36468" d="M337.8 765.5c-9.5 4.3-31 0-31 0l-9-.5c-11.8-.8-31.5-2-38.5-2.6-10.1-.9-7.6-5-7.6-5v-25.2l49.3-12.5s19.5 6.6 24.8 12.5c5.1 5.5 8 1.3 17.1 2.9l1.4.2c8.6 2 13.3 2.8 16 10a32.1 32.1 0 0 1 1.4 4.5c2.5 11.5-14.4 11.4-23.9 15.7z"/><path d="M360.3 745.2a37.2 37.2 0 0 1-5.5 2.9c-6.5 3-12.7 6.5-19.2 9.3s-13.6 4.8-20.7 4.3c-3.7-.3-7.5-1.2-11-.2a25.5 25.5 0 0 0-6.1 3.5c-11.8-.8-31.5-2-38.5-2.6-10.1-.9-7.6-5-7.6-5v-3a12.5 12.5 0 0 1 1.2-.1 22 22 0 0 1 7.2 1l15.3 4.2a12.1 12.1 0 0 1 6-7.5 18.7 18.7 0 0 1 9.4-2.2c8 .1 15.4 3.9 23.3 4.2a13 13 0 0 0 6.5-1l3-2a21.8 21.8 0 0 1 5.4-1.8 119.7 119.7 0 0 0 15.2-4.9c1.4-.5 3-1.5 2.8-3-.2-2-3.4-2.3-4.2-4.1a2.4 2.4 0 0 1 .1-2.1c.5 0 1 .2 1.4.3 8.6 2 13.3 2.7 16 9.8z" opacity=".1"/><path fill="#444053" d="M316.3 592.5l-2.7 62.8s-4 12.9-1.8 16.5 5.8 7.4 4.5 9.5S299 707 293.8 698s-10.3-48-10.3-48l4.8-48.2zM327.9 436l7.4 9.9v86.3s2.2 23 0 27.7-13.2 14.3-13.2 14.3l-9.2-47.5 2-50.3z"/><path d="M316.3 592.5l-2.7 62.8s-4 12.9-1.8 16.5 5.8 7.4 4.5 9.5S299 707 293.8 698s-10.3-48-10.3-48l4.8-48.2zM327.9 436l7.4 9.9v86.3s2.2 23 0 27.7-13.2 14.3-13.2 14.3l-9.2-47.5 2-50.3z" opacity=".1"/><path fill="#444053" d="M335.3 399.2v46.6l-8.3 36.4s-2.7 87.6-.3 98.3-8 20.7-8 20.7-6 .6-6 5.3-10 18-10 18l.3 26s4.3 48.7-2.3 58 2.3 10.7 2.3 10.7c-8.3 27.3-48.3 21-52 18s0-62 0-62 9-90 16-94 .3-9 2.7-15-2.4-22.4-2.4-22.4-2-19.3-7-28.6-4.3-35-4.3-35-14-18.7-18.2-26-6.8-26.4-5.8-40.7c.7-9.7 5.8-23.8 9-32a197 197 0 0 1 2.7-6.3l.9.2 54.6 14.3z"/><path d="M340.4 176.2c-5.2 1.4-10 6.5-14.4 12.7H325a35.7 35.7 0 0 1-31-18 35.2 35.2 0 0 1-3.1-7c3-8 5.3-14.8 5.3-14.8s60 22.6 44.3 27z" opacity=".1"/><path fill="#efb7b9" d="M360.6 151.2a35.8 35.8 0 1 1-66.8-17.5 35 35 0 0 1 3.7-5.5 36.2 36.2 0 0 1 8.3-7.2 35.8 35.8 0 0 1 54.8 27.5v2.7z"/><path d="M330.6 236.7l-.1 1.1-16.6-26c-1.8 4.2-2.8 7-2.8 7S271.6 189 278 187c2.1-.7 4.9-5.2 7.6-10.9l.3-.7c3 8.6 19.8 26 26.8 32.8a92 92 0 0 0 2 2l1 1 .6.5c2.6 2.7 13.3 14.3 14.4 25z" opacity=".1"/><path fill="#dce6f2" d="M343 325l-1.8 58.5-.3 10.5s-21.6-2-41.7-4.2a271.4 271.4 0 0 1-33.8-4.8c-3-1.4-9.4-2.5-14.5-3.2l-7-.8-3 .6c-3.8.7-10.6 1.3-14.5-2.1-5-4.4 8.2-20.4 11.5-24.2l.7-.8-1.2-11.6-3.3-30s-2-17.2-5-26.4a48.9 48.9 0 0 1-1.7-8 64.5 64.5 0 0 1 1.7-25.3 55 55 0 0 0 1.8-10.7c.5-9.3 28.8-45 35.8-48.3a14.8 14.8 0 0 0 7.1-7.1 13.6 13.6 0 0 0 1.1-3.1c3-13 10.6-7.9 10.6-7.9 1.8 10.2 30.1 37.1 30.1 37.1l.6.6c2.8 2.9 15.3 16.4 14.4 28a33.9 33.9 0 0 0 2 12.6 213.8 213.8 0 0 1 9.8 56z"/><path d="M302.9 255.4s-7 17-12.3 19.8 14.8 5.8 12.3-19.8zM308.1 287.2s-16 2-16 5 16-5 16-5zM324.9 306.7s-23.3 49.5-29.8 51 29.8-51 29.8-51zM315.2 215.7l-19.2 8.4-23.2-35a13.6 13.6 0 0 0 1-3.2c3-13 10.6-7.8 10.6-7.8 1.9 10.1 30.2 37 30.2 37z" opacity=".1"/><path fill="#dce6f2" d="M316.2 213.7l-19.2 8.4-23.2-35a13.6 13.6 0 0 0 1-3.2c3-13 10.6-7.8 10.6-7.8 1.9 10.1 30.2 37 30.2 37z"/><path d="M340.9 394s-21.6-2-41.7-4.2l36.1 9.4v11c-1.6 1.5-3 2.2-3.8 1.8-4.2-1.7-38.1-7.2-38.1-7.2s-19.7-10-41-22a16.4 16.4 0 0 1-1.5-1 23.6 23.6 0 0 1-6.3-6.3c-4-5.7-5.9-13-6.7-20.2a87.2 87.2 0 0 1-.5-12.3 101.5 101.5 0 0 1 1.2-14 460 460 0 0 1-3-54c.3-28 26.5-38 26.5-38 48.3-4.3 33.3 73.7 33.3 73.7s-2.7 22-3.5 24.3-3.5 6-3.1 11.2 9.6 11.6 9.6 11.6 9 4.2 12.7 10.4c2.7 4.6 20.2 10.9 30.1 15.3zM357 129a11.3 11.3 0 0 1-1 4.7 29.6 29.6 0 0 1-1.7 3.6 16.4 16.4 0 0 1-4.4 5.4c-2.3 1.7-5.2 2.2-8 2.8s-5.6 1.8-7.2 4.1a14.3 14.3 0 0 0-1.7 5 10.5 10.5 0 0 1-2 4.7 4 4 0 0 1-4.7 1 4.7 4.7 0 0 1-1.8-2.2c-1.1-2.6-1.4-5.5-1.9-8.2s-1.1-5.7-2.8-7.9-4.7-3.7-7.4-2.8a7.1 7.1 0 0 0-4 3.9 22.2 22.2 0 0 0-1.5 5.5q-1.9 10.2-4.4 20.2a1.9 1.9 0 0 1-.3.8 1.4 1.4 0 0 1-1 .4c-2.3.3-4.4-1.3-6.7-1a3.8 3.8 0 0 0-.7 0 35.7 35.7 0 0 1 3.7-40.8h.1a10.8 10.8 0 0 0 4-2.5 42.2 42.2 0 0 0 4-4.7l.8-1a45.6 45.6 0 0 1 7.8-7.4 8 8 0 0 1 2.7-1.4 7.9 7.9 0 0 1 2.5-.1 63.6 63.6 0 0 0 10.4.4 66.8 66.8 0 0 1 7.3-.8c6.4.2 11.8 4.7 15.8 9.6 2.1 2.5 4 5.4 4.2 8.7z" opacity=".1"/><path fill="#965d7b" d="M289.1 134.6c-1.4 2.3-3.9 3.8-4.8 6.3-1.4 3.7 1 8.2-1.2 11.4-.7 1.1-2 2-2.3 3.2-.7 2 1.2 4.3.7 6.5s-3.3 4-2.6 6.1a4 4 0 0 0 2.2 2 8.6 8.6 0 0 0 5 1.1c2.7-.4 4.8-3.1 7.5-3.3 2.3-.2 4.4 1.4 6.7 1.1a1.5 1.5 0 0 0 1-.4 1.7 1.7 0 0 0 .3-.8q2.5-10 4.4-20.2a21.8 21.8 0 0 1 1.5-5.5 7.2 7.2 0 0 1 4-4c2.7-.8 5.7.7 7.4 3s2.3 5 2.8 7.8.8 5.6 1.9 8.2a4.8 4.8 0 0 0 1.8 2.3c1.5.9 3.5.2 4.7-1.1a10.4 10.4 0 0 0 2-4.8 14.3 14.3 0 0 1 1.7-4.9c1.5-2.3 4.4-3.4 7.2-4s5.7-1.2 8-2.9a16.5 16.5 0 0 0 4.4-5.4 16 16 0 0 0 2.7-8.3c-.1-3.3-2-6.2-4-8.7-4-4.9-9.5-9.4-15.8-9.5a62.2 62.2 0 0 0-7.3.7 62.6 62.6 0 0 1-10.4-.4 8.2 8.2 0 0 0-2.6.1 7.5 7.5 0 0 0-2.6 1.4 45.6 45.6 0 0 0-7.8 7.4 57.3 57.3 0 0 1-4.8 5.6 10.8 10.8 0 0 1-4 2.6c-1 .3-2 0-3 .4-3 .9-3.3 4.7-4.7 7z"/><path d="M385.4 161.8c-8 1.5-14.6-5-18.3-9.7a39.2 39.2 0 0 1-3-4.6l27.4 5.2 1.1.2s5 6.7-7.2 8.9z" opacity=".1"/><g opacity=".1"><path d="M281.5 159.1a8.3 8.3 0 0 0-.6-3.8l-.1.3c-.4 1.3.1 2.7.5 4.1a3 3 0 0 0 .2-.6zM283.9 142.8a22.2 22.2 0 0 0 0 4.1 22.3 22.3 0 0 0 0-4.1zM353.3 133.4a16.4 16.4 0 0 1-4.4 5.5c-2.3 1.6-5.2 2-8 2.7s-5.6 1.8-7.2 4.1a14.4 14.4 0 0 0-1.7 5 10.5 10.5 0 0 1-2 4.7c-1.1 1.3-3.2 2-4.7 1.1a4.8 4.8 0 0 1-1.8-2.3c-1.1-2.6-1.4-5.4-1.9-8.2s-1-5.6-2.8-7.9-4.7-3.7-7.4-2.8a7.1 7.1 0 0 0-4 3.9 21.8 21.8 0 0 0-1.4 5.5q-2 10.2-4.5 20.2a1.7 1.7 0 0 1-.3.8 1.5 1.5 0 0 1-1 .4c-2.2.3-4.4-1.2-6.6-1-2.8.1-4.8 2.8-7.5 3.2a8.4 8.4 0 0 1-5-1 5.3 5.3 0 0 1-1.9-1.4 2.7 2.7 0 0 0-.3 2.4 3.9 3.9 0 0 0 2.2 2 8.4 8.4 0 0 0 5 1c2.7-.4 4.7-3 7.5-3.3 2.2-.1 4.4 1.4 6.6 1.2a1.5 1.5 0 0 0 1-.5 1.7 1.7 0 0 0 .4-.7q2.5-10 4.3-20.3a21.8 21.8 0 0 1 1.6-5.5 7.1 7.1 0 0 1 4-3.9c2.6-.8 5.6.6 7.3 2.9s2.4 5 2.8 7.8.8 5.6 2 8.2a4.8 4.8 0 0 0 1.7 2.3c1.5 1 3.6.2 4.7-1a10.5 10.5 0 0 0 2-4.8 14.4 14.4 0 0 1 1.7-5c1.6-2.3 4.5-3.4 7.2-4s5.7-1.2 8-2.8a16.4 16.4 0 0 0 4.4-5.5 16 16 0 0 0 2.8-8.3 10.7 10.7 0 0 0-.2-1.1 19.6 19.6 0 0 1-2.6 6.4z"/></g><path d="M356.1 133.7a35.3 35.3 0 0 1 4.4 14.9c-8.9-5-17.2-10.5-21.5-12.4-7.3-3.4-34.9-2.9-45.3-2.6a35 35 0 0 1 3.8-5.4 36.2 36.2 0 0 1 8.3-7.2 35.8 35.8 0 0 1 50.3 12.7zM387.9 157.6c-4.8 1.4-12.7-1.4-20.8-5.5a39.2 39.2 0 0 1-3-4.5l27.4 5.1c1.8 1.3 2.3 3-3.6 4.9z" opacity=".1"/><path fill="#444053" d="M327 99s-26.2-1.4-33.6 12.8l-1.2 12.6-2-.2-.4 8.6s40.1-1.8 49.3 2.4 37.5 24.9 48.8 21.4-1-6.8-1-6.8-15.6-6.6-15.6-11.8-3.9-32.7-44.3-39z"/><path d="M276.4 567.3s16.8 16.2 24 15c0 0-20.5-1.8-24-15zM272.9 574.8s1.5 8.3 5.5 7.5-5.5-7.5-5.5-7.5zM299.1 714.5s-23.7 18.5-19.7 19 19.8-19 19.8-19z" opacity=".1"/><path fill="tomato" d="M331 347.3l77-12.5v72.9l-73.2-3.8-3.8-56.6z"/><path d="M331 347.3l77-12.5v72.9l-73.2-3.8-3.8-56.6z" opacity=".1"/><path fill="tomato" d="M408 334.8l92.3 6.9-5.1 63.4-87.2 2.6v-72.9z"/><path d="M408 334.8l92.3 6.9-5.1 63.4-87.2 2.6v-72.9z" opacity=".1"/><path fill="tomato" d="M436.4 312.6L408 334.8l92.3 6.9 15.1-22.8-79-6.3z"/><path fill="tomato" d="M303.1 323l69.3-8.4 35.6 20.2-77 12.5-27.9-24.3z"/><path fill="tomato" d="M424.8 353.7v99.7l-36-3.7-15.7-1.6-4.8-.5-15.7-1.6-21.6-2.2v-96.5l76.9 5.3 16.9 1.1zM500.3 341.7v97.2l-28.9 5.6-14.1 2.7-32.5 6.2v-99.7l75.5-12z"/><path d="M500.3 341.7v97.2l-28.9 5.6-14.1 2.7-32.5 6.2v-99.7l75.5-12z" opacity=".1"/><path fill="tomato" d="M303.1 368.3l27.9-21 93.8 6.4L411 377l-107.9-8.7z"/><path fill="#fff" d="M303.1 368.3l27.9-21 93.8 6.4L411 377l-107.9-8.7z" opacity=".1"/><path fill="tomato" d="M500.3 341.7l-75.5 12 24.6 22 80.8-13.5-29.9-20.5z"/><path fill="#fff" d="M500.3 341.7l-75.5 12 24.6 22 80.8-13.5-29.9-20.5zM471.4 444.5l-14.1 2.7v-20.8l13.2-3.3.9 21.4zM388.8 436v13.7l-15.7-1.6V436h15.7zM368.3 440.3v7.3l-15.7-1.6v-5.7h15.7z" opacity=".1"/><path d="M415.4 428.7c-10.8 13.7-46.3 4.2-46.3 4.2l-26.3-27.5-3.6-3.7 7-13 5.3 1.8c17.7 6.2 73 26.6 63.9 38.2z" opacity=".1"/><path fill="#efb7b9" d="M414.4 426.7c-10.8 13.7-46.3 4.2-46.3 4.2l-26.3-27.5-3.6-3.7 7-13 5.3 1.8c17.7 6.2 73 26.6 63.9 38.2z"/><path d="M350.5 388.5a59.1 59.1 0 0 1-8.8 14.9l-3.5-3.7 7-13 5.3 1.8z" opacity=".1"/><path fill="#dce6f2" d="M263.1 233s-26.2 10-26.5 38a460 460 0 0 0 3 54s-7.5 41.7 13.8 53.7 41 22 41 22 34 5.5 38.1 7.3 18.7-20.8 16.4-24.5-33.1-13-36.8-19.3-12.7-10.4-12.7-10.4-9.2-6.3-9.6-11.6 2.4-9 3.1-11.2 3.6-24.3 3.6-24.3 14.9-78-33.4-73.7z"/><path d="M275.1 325.7s-35.5 4-32.7 16.5c0 0 13.5-12.6 32.7-16.5zM275.1 330.7s-20.1 14.7-16.4 15.7 16.4-15.7 16.4-15.7zM284.1 336.7s-5.7 10.3-2.5 9.8 2.5-9.8 2.5-9.8z" opacity=".1"/><path fill="tomato" d="M653.8 112.4s-38-2.3-33.6 24.4c0 0-.9 4.7 3.4 6.8 0 0 0-2 3.9-1.3a17.5 17.5 0 0 0 4.1.2 8.6 8.6 0 0 0 5-2s10.8-4.5 15-22c0 0 3-3.8 3-4.8l-6.5 2.8s2.2 4.6.5 8.4c0 0-.2-8.3-1.5-8l-3.3 1.5s3.8 8.1 1 14c0 0 1-10-2.2-13.4l-4.5 2.7s4.4 8.3 1.4 15c0 0 .8-10.3-2.4-14.4l-4 3.2s4.1 8.2 1.6 13.8c0 0-.4-12-2.5-13 0 0-3.6 3.1-4.2 4.4 0 0 2.9 6 1.1 9.2 0 0-1-8.1-2-8.2 0 0-3.6 5.4-4 9a19.5 19.5 0 0 1 3.1-9.5 10.7 10.7 0 0 0-5.4 2.8s.5-3.8 6.3-4.1c0 0 3-4 3.8-4.3 0 0-5.8-.5-9.3 1 0 0 3-3.5 10.3-2l4-3.2s-7.6-1-10.8 0c0 0 3.7-3.1 12-.8l4.3-2.6s-6.5-1.4-10.3-1c0 0 4-2.1 11.6.3l3.1-1.4-6-1.1c-1.4-.1-1.5-.6-1.5-.6a16.4 16.4 0 0 1 8.9 1s6.7-2.4 6.6-2.8z"/><path fill="tomato" d="M769.2 245.7s-38-2.3-33.5 24.4c0 0-1 4.7 3.4 6.8 0 0 0-2 3.9-1.3a17.5 17.5 0 0 0 4 .2 8.6 8.6 0 0 0 5-2s10.8-4.5 15-22c0 0 3-3.8 2.9-4.7l-6.4 2.7s2.2 4.6.5 8.5c0 0-.3-8.3-1.5-8.1l-3.3 1.6s3.8 8 .9 14c0 0 1-10-2.1-13.4l-4.5 2.6s4.4 8.3 1.4 15.1c0 0 .8-10.4-2.3-14.5l-4.1 3.2s4.1 8.2 1.6 13.9c0 0-.3-12.2-2.5-13.1 0 0-3.6 3.2-4.1 4.5 0 0 2.8 6 1 9 0 0-1-8-2-8 0 0-3.5 5.3-3.9 9a19.5 19.5 0 0 1 3-9.6 10.8 10.8 0 0 0-5.4 2.8s.6-3.8 6.4-4c0 0 3-4.2 3.7-4.4 0 0-5.8-.5-9.3 1 0 0 3.1-3.5 10.3-1.9l4-3.3s-7.5-1-10.8.1c0 0 3.7-3.1 12-.8l4.3-2.7s-6.4-1.4-10.3-.9c0 0 4-2.2 11.6.2l3.2-1.4-6.2-1c-1.4 0-1.4-.6-1.4-.6a16.4 16.4 0 0 1 8.9 1s6.8-2.4 6.6-2.9zM538.4 222s8.7-37-18.3-37.2c0 0-4.5-1.6-7.3 2.2 0 0 1.9.4.6 4a17.8 17.8 0 0 0-1 4 8.6 8.6 0 0 0 1.3 5.4s2.5 11.3 19 18.4c0 0 3.2 3.7 4.2 3.7l-1.6-6.8s-5 1.4-8.4-1c0 0 8.2 1.2 8.2 0l-1-3.6s-8.6 2.4-13.9-1.4c0 0 9.6 2.7 13.5.2l-1.8-5s-9 3-15.1-1.1c0 0 10.1 2.5 14.7.1l-2.5-4.5s-8.8 2.6-14-.8c0 0 12 1.7 13.4-.3 0 0-2.5-4-3.7-4.8 0 0-6.4 1.8-9.2-.5 0 0 8.2.3 8.4-.5 0 0-4.7-4.5-8.3-5.5a19.6 19.6 0 0 1 9 4.7 10.8 10.8 0 0 0-2-5.9s3.7 1.2 3 7c0 0 3.6 3.6 3.7 4.4 0 0 1.4-5.5.5-9.3 0 0 3 3.7.2 10.5l2.5 4.6s2.3-7.3 1.8-10.7c0 0 2.4 4.2-1.2 11.9l1.8 4.8s2.5-6.2 2.7-10c0 0 1.4 4.4-2.2 11.4l.9 3.3 2-5.8c.4-1.3.8-1.4.8-1.4a16.4 16.4 0 0 1-2.5 8.6s1.3 7 1.8 7zM455.2 234.7s-30.6-22.8-41.5 1.9c0 0-3.3 3.5-1 7.6 0 0 1.2-1.6 4 1a17.5 17.5 0 0 0 3.4 2.5 8.6 8.6 0 0 0 5.4 1s11.4 2.2 24.4-10.1c0 0 4.7-1.5 5.1-2.4l-6.8-1.2s-.8 5-4.3 7.3c0 0 4.4-7 3.2-7.6l-3.6-.5s-1.3 8.9-7 12.2c0 0 6.5-7.7 5.7-12.3l-5.3-.3s-.9 9.4-7 13.4c0 0 6.3-8.3 6-13.4l-5.3.4s-1 9.2-6.2 12.5c0 0 6.4-10.3 5-12.3 0 0-4.7.7-5.9 1.5 0 0-.9 6.5-4 8.2 0 0 3.5-7.4 2.8-7.9 0 0-6 2.5-8.3 5.4a19.5 19.5 0 0 1 7.8-6.3 10.8 10.8 0 0 0-6-.6s2.4-3 7.5 0c0 0 4.7-1.8 5.5-1.5 0 0-4.6-3.6-8.4-4.2 0 0 4.6-1.3 9.7 4l5.2-.6s-5.7-5-9-5.8c0 0 4.8-.6 10.3 5.8l5.2.2s-4.7-4.7-8.2-6.4c0 0 4.6.4 9.6 6.5l3.4.6-4.5-4.3c-1-.9-1-1.2-1-1.2a16.4 16.4 0 0 1 7 5.7s7 1.6 7 1.2zM556.8 22.6s-30.5-22.8-41.5 1.9c0 0-3.3 3.4-.9 7.6 0 0 1.1-1.6 4 1a17.8 17.8 0 0 0 3.4 2.5 8.6 8.6 0 0 0 5.3 1s11.4 2.2 24.5-10.2c0 0 4.6-1.5 5-2.3l-6.8-1.2s-.7 5-4.3 7.3c0 0 4.4-7 3.3-7.6l-3.7-.5s-1.3 8.9-7 12.2c0 0 6.4-7.7 5.6-12.3l-5.2-.3s-.9 9.4-7.1 13.4c0 0 6.4-8.3 6-13.4l-5.2.4s-1 9.2-6.3 12.5c0 0 6.5-10.3 5.1-12.3 0 0-4.7.7-5.9 1.4 0 0-.9 6.6-4 8.2 0 0 3.5-7.3 2.8-7.8 0 0-6 2.5-8.3 5.4a19.4 19.4 0 0 1 7.8-6.3 10.7 10.7 0 0 0-6.1-.7s2.5-2.8 7.6 0c0 0 4.7-1.7 5.5-1.5 0 0-4.6-3.5-8.4-4.2 0 0 4.6-1.3 9.7 4l5.2-.5s-5.7-5-9-5.8c0 0 4.8-.6 10.3 5.8l5.2.2s-4.7-4.7-8.2-6.4c0 0 4.6.4 9.6 6.5l3.4.6s-3.4-3.4-4.5-4.2-1-1.3-1-1.3a16.4 16.4 0 0 1 7 5.7s6.9 1.6 7 1.2zM673.4 51.5s-12.2-36-35.2-21.9c0 0-4.7 1-5 5.7 0 0 1.8-.7 2.6 3.1a18 18 0 0 0 1.3 4 8.7 8.7 0 0 0 3.9 3.8s8.1 8.3 25.9 5.5c0 0 4.7 1.5 5.5 1l-5-5s-3.4 3.8-7.7 3.7c0 0 7.7-3.3 7-4.4 0-.2-2.7-2.5-2.7-2.5s-6 6.5-12.6 6.1c0 0 9.6-2.7 11.6-7l-4.1-3.2s-6 7.2-13.5 7c0 0 10-3.2 12.5-7.6l-4.5-2.6s-6 7-12.2 6.7c0 0 11.1-4.9 11.1-7.2 0 0-4.2-2.2-5.6-2.2 0 0-4.5 4.9-8 4.4 0 0 7-4 6.7-4.8 0 0-6.3-1.3-9.8-.3a19.5 19.5 0 0 1 10-.7 10.8 10.8 0 0 0-4.7-4s3.7-1 6.2 4.3c0 0 4.9 1.2 5.4 1.8 0 0-1.7-5.5-4.5-8.1 0 0 4.5 1.5 5.7 8.8l4.6 2.5s-1.9-7.4-4.2-10c0 0 4.4 2.2 5.3 10.7l4.1 3s-1.1-6.5-3-9.8c0 0 3.5 3 4.2 10.8l2.4 2.4-1.3-6.1c-.4-1.3 0-1.4 0-1.4a16.5 16.5 0 0 1 2.4 8.6s4.8 5.2 5.2 5zM593.8 53.3s-38-4.2-34.8 22.7c0 0-1.1 4.6 3 7 0 0 .2-2 4-1.1a18.4 18.4 0 0 0 4.1.4 8.6 8.6 0 0 0 5.2-1.8s10.9-4 16-21.2c0 0 3.2-3.6 3.2-4.6l-6.6 2.4s2 4.7 0 8.5c0 0 .2-8.3-1-8.2l-3.4 1.5s3.4 8.2.2 14c0 0 1.6-10-1.4-13.5l-4.7 2.4s4 8.6.7 15.2c0 0 1.3-10.4-1.6-14.6l-4.3 3s3.7 8.4 1 14c0 0 .2-12.2-2-13.2 0 0-3.7 3-4.3 4.2 0 0 2.6 6.1.7 9.2 0 0-.7-8.2-1.6-8.3 0 0-3.8 5.2-4.4 8.9a19.5 19.5 0 0 1 3.6-9.4 10.8 10.8 0 0 0-5.6 2.5s.7-3.7 6.5-3.8c0 0 3.2-3.9 4-4 0 0-5.7-.8-9.3.5 0 0 3.3-3.4 10.4-1.4l4.2-3S568 60 564.8 61c0 0 3.8-3 11.9-.3l4.5-2.4s-6.4-1.7-10.2-1.4c0 0 4.1-2 11.5.8l3.3-1.3-6.1-1.4c-1.4-.3-1.4-.6-1.4-.6A16.4 16.4 0 0 1 587 56s6.7-2.2 6.7-2.6zM925.4 347.5s-38-4.2-34.8 22.6c0 0-1.1 4.7 3 7 0 0 .2-2 4-1.1a17.3 17.3 0 0 0 4.1.4 8.5 8.5 0 0 0 5.2-1.8s10.9-3.9 16-21.1c0 0 3.2-3.7 3.1-4.7l-6.5 2.4s2 4.8 0 8.5c0 0 .2-8.3-1-8.1-.3 0-3.4 1.4-3.4 1.4s3.3 8.2.2 14c0 0 1.6-9.9-1.4-13.4l-4.7 2.4s4 8.5.7 15.2c0 0 1.3-10.4-1.7-14.6l-4.2 3s3.7 8.4.9 13.9c0 0 .3-12.2-1.8-13.2 0 0-3.8 3-4.4 4.2 0 0 2.5 6.1.6 9.2 0 0-.6-8.1-1.5-8.2 0 0-3.9 5.2-4.4 8.8a19.5 19.5 0 0 1 3.5-9.4 10.7 10.7 0 0 0-5.6 2.6s.8-3.8 6.6-3.8c0 0 3.1-4 4-4.1 0 0-5.8-.8-9.3.6 0 0 3.2-3.5 10.4-1.5l4.2-3s-7.5-1.5-10.8-.5c0 0 3.8-3 11.9-.3l4.5-2.4s-6.4-1.7-10.2-1.4c0 0 4.1-2 11.6.8l3.2-1.3s-4.7-1.1-6.1-1.3-1.4-.6-1.4-.6a16.4 16.4 0 0 1 8.8 1.4s6.8-2.2 6.7-2.6zM983.3 382.9s-37.9-4.3-34.8 22.6c0 0-1 4.7 3 7 0 0 .2-2 4-1.1a17.6 17.6 0 0 0 4.1.4 8.6 8.6 0 0 0 5.2-1.8s10.9-3.9 16-21.1c0 0 3.2-3.7 3.1-4.7l-6.5 2.4s2 4.8 0 8.5c0 0 .2-8.3-1-8.2-.3 0-3.5 1.5-3.5 1.5s3.4 8.2.3 14c0 0 1.5-9.9-1.5-13.5l-4.6 2.4s4 8.6.6 15.2c0 0 1.3-10.3-1.6-14.6l-4.2 3s3.7 8.5.9 14c0 0 .3-12.2-1.9-13.2 0 0-3.7 3-4.3 4.2 0 0 2.5 6.1.6 9.2 0 0-.7-8.1-1.6-8.2 0 0-3.8 5.1-4.3 8.8a19.5 19.5 0 0 1 3.5-9.4 10.8 10.8 0 0 0-5.6 2.6s.8-3.8 6.6-3.8c0 0 3.1-4 4-4.1 0 0-5.8-.8-9.3.6 0 0 3.2-3.5 10.4-1.5l4.2-3s-7.6-1.5-10.8-.5c0 0 3.8-3 11.9-.3l4.5-2.4s-6.4-1.7-10.2-1.4c0 0 4.1-2 11.5.8l3.3-1.3-6.1-1.3c-1.4-.2-1.4-.6-1.4-.6a16.4 16.4 0 0 1 8.8 1.4s6.8-2.2 6.7-2.6zM854.7 84.8s-30.5-22.8-41.4 2c0 0-3.3 3.4-1 7.5 0 0 1.2-1.6 4 1a17.5 17.5 0 0 0 3.4 2.5 8.6 8.6 0 0 0 5.4 1s11.3 2.2 24.4-10.1c0 0 4.7-1.5 5.1-2.4l-6.9-1.2s-.7 5-4.2 7.3c0 0 4.4-7 3.2-7.5-.2-.2-3.6-.5-3.6-.5s-1.3 8.8-7 12.1c0 0 6.4-7.7 5.6-12.3l-5.2-.3s-.9 9.4-7.1 13.4c0 0 6.4-8.2 6-13.4l-5.2.5s-1 9-6.3 12.4c0 0 6.4-10.3 5.1-12.3 0 0-4.7.7-5.9 1.5 0 0-.9 6.5-4 8.2 0 0 3.5-7.4 2.7-7.9 0 0-5.9 2.5-8.2 5.4a19.5 19.5 0 0 1 7.8-6.3 10.8 10.8 0 0 0-6.1-.6s2.5-2.9 7.6 0c0 0 4.6-1.8 5.4-1.5 0 0-4.5-3.6-8.3-4.2 0 0 4.6-1.3 9.7 4l5.2-.6s-5.8-5-9-5.8c0 0 4.8-.6 10.3 5.8l5.2.2s-4.7-4.7-8.2-6.4c0 0 4.6.4 9.6 6.6l3.4.5-4.5-4.3c-1.1-.9-1-1.1-1-1.1a16.4 16.4 0 0 1 7 5.7s6.9 1.6 7 1.1zM878.3 249.7S867.8 213 844 226.2c0 0-4.7.7-5.3 5.4 0 0 1.9-.5 2.5 3.3a17.7 17.7 0 0 0 1.2 4 8.6 8.6 0 0 0 3.7 4s7.7 8.7 25.6 6.7c0 0 4.6 1.7 5.5 1.2l-4.8-5.1s-3.6 3.6-7.8 3.3c0 0 7.8-3 7.2-4.1l-2.7-2.6s-6.3 6.2-12.8 5.5c0 0 9.8-2.3 11.9-6.4l-4-3.4s-6.4 7-13.8 6.4c0 0 10-2.8 12.9-7l-4.4-2.9s-6.4 6.7-12.5 6.2c0 0 11.3-4.4 11.4-6.7 0 0-4.1-2.4-5.5-2.4 0 0-4.7 4.6-8.3 4 0 0 7.3-3.7 7-4.5 0 0-6.2-1.6-9.8-.7a19.5 19.5 0 0 1 10-.3 10.7 10.7 0 0 0-4.5-4.2s3.8-.8 6 4.6c0 0 4.8 1.4 5.3 2 0 0-1.5-5.5-4-8.3 0 0 4.3 1.7 5.2 9l4.5 2.8s-1.6-7.5-3.8-10.2c0 0 4.3 2.4 4.8 11l4 3.2s-.8-6.6-2.6-10c0 0 3.5 3 3.7 11l2.4 2.5-1-6.1c-.3-1.3 0-1.6 0-1.6a16.4 16.4 0 0 1 2 8.7s4.6 5.4 5 5.2zM643.9 332.2s-20.5-32.2-39.4-13c0 0-4.4 2-3.6 6.8 0 0 1.6-1 3.3 2.4a17.1 17.1 0 0 0 2.3 3.5 8.5 8.5 0 0 0 4.7 2.9s9.8 6 26.4-.8c0 0 4.9.2 5.6-.4l-6-3.6s-2.5 4.5-6.6 5.3c0 0 6.6-5 5.7-6l-3.2-1.7s-4.3 7.8-10.8 9c0 0 8.7-5 9.6-9.6l-4.8-2.1s-4.1 8.4-11.4 10c0 0 9-5.5 10.4-10.4l-5-1.5s-4.3 8.2-10.3 9.5c0 0 9.6-7.4 9.1-9.7 0 0-4.7-1-6-.7 0 0-3.2 5.7-6.7 6.2 0 0 5.9-5.7 5.4-6.4 0 0-6.4.3-9.6 2.1a19.5 19.5 0 0 1 9.5-3 10.7 10.7 0 0 0-5.5-2.9s3.4-1.7 7 2.8c0 0 5 0 5.7.5 0 0-3-5-6.3-6.9 0 0 4.7.4 7.6 7.2l5 1.3s-3.5-6.7-6.3-8.6c0 0 4.7 1.1 7.6 9.1l4.7 2s-2.6-6-5.3-8.9c0 0 4.2 2 6.7 9.5l3 1.8s-2-4.4-2.8-5.6-.4-1.5-.4-1.5a16.4 16.4 0 0 1 4.4 7.8s6 4 6.3 3.6z" opacity=".1"/><path fill="tomato" d="M778.1 167.8s-19.4-32.8-39-14.2c0 0-4.4 2-3.7 6.7 0 0 1.6-1 3.2 2.5a17.3 17.3 0 0 0 2.2 3.5 8.5 8.5 0 0 0 4.5 3s9.7 6.4 26.5 0c0 0 4.9.4 5.6-.2l-5.9-3.8s-2.6 4.4-6.7 5.1c0 0 6.8-4.8 6-5.7l-3.3-1.9s-4.6 7.7-11 8.6c0 0 8.8-4.7 9.9-9.2l-4.7-2.2s-4.5 8.3-11.8 9.6c0 0 9-5.2 10.7-10l-5-1.7s-4.4 8-10.5 9.1c0 0 9.8-7 9.4-9.3 0 0-4.6-1.2-6-1 0 0-3.4 5.7-7 6 0 0 6.1-5.4 5.7-6.1 0 0-6.5 0-9.7 1.8a19.5 19.5 0 0 1 9.6-2.8 10.8 10.8 0 0 0-5.4-3s3.5-1.7 7 3c0 0 5 .1 5.7.6 0 0-2.9-5-6-7 0 0 4.6.5 7.3 7.4l5 1.5s-3.4-6.8-6.2-8.9c0 0 4.7 1.3 7.4 9.4l4.7 2.2s-2.5-6.2-5-9c0 0 4 2.1 6.3 9.7l3 1.8s-2-4.5-2.6-5.7-.4-1.5-.4-1.5a16.4 16.4 0 0 1 4.2 8s5.8 4 6 3.7zM655.2 236.7s1-38-25.5-32.7c0 0-4.7-.7-6.7 3.6 0 0 2 0 1.4 3.9a17.6 17.6 0 0 0 0 4.1 8.6 8.6 0 0 0 2.2 5s4.8 10.5 22.4 14.1c0 0 4 3 4.9 2.8l-3-6.3s-4.5 2.3-8.5.7c0 0 8.3-.5 8.1-1.7l-1.7-3.3s-8 4-13.9 1.4c0 0 10 .8 13.3-2.5l-2.8-4.4s-8.2 4.6-15.1 1.9c0 0 10.5.4 14.4-2.9l-3.3-4s-8 4.4-13.8 2.1c0 0 12.1-.7 13-3 0 0-3.3-3.4-4.6-4 0 0-5.9 3-9 1.4 0 0 8-1.3 8-2.2 0 0-5.5-3.4-9.2-3.6a19.5 19.5 0 0 1 9.7 2.7 10.8 10.8 0 0 0-3-5.3s3.8.4 4.3 6.2c0 0 4.2 2.8 4.4 3.6 0 0 .3-5.8-1.3-9.2 0 0 3.6 3 2.3 10.2l3.4 4s.8-7.7-.5-10.9c0 0 3.3 3.6 1.3 11.9l2.8 4.3s1.1-6.5.5-10.3c0 0 2.3 4 .2 11.6l1.5 3 .9-6c0-1.4.5-1.6.5-1.6a16.4 16.4 0 0 1-.7 9s2.7 6.6 3.1 6.4z"/><ellipse cx="699" cy="716.3" fill="tomato" opacity=".1" rx="26.9" ry="4.5"/><ellipse cx="600.8" cy="785.4" fill="tomato" opacity=".1" rx="26.9" ry="4.5"/><ellipse cx="93.1" cy="750" fill="tomato" opacity=".1" rx="26.9" ry="4.5"/><ellipse cx="805.1" cy="780.8" fill="tomato" opacity=".1" rx="26.9" ry="4.5"/><ellipse cx="833.1" cy="723.1" fill="tomato" rx="40.2" ry="6.8"/><path fill="tomato" d="M849.8 712a11.6 11.6 0 0 0 3.8-5.8c.5-2.3-.5-5-2.7-5.9-2.4-1-5 .8-7 2.5s-4.3 3.7-7 3.3a10.5 10.5 0 0 0 3.3-9.8 4.1 4.1 0 0 0-.9-2c-1.4-1.5-3.8-.8-5.5.3-5.2 3.7-6.6 10.7-6.7 17.1-.5-2.3 0-4.7 0-7s-.7-5-2.7-6.2a8 8 0 0 0-4-1c-2.3-.1-5 .1-6.5 1.8-2 2.2-1.5 5.7.2 8s4.4 3.8 6.8 5.5a15.1 15.1 0 0 1 4.8 4.6 4.7 4.7 0 0 1 .4.8h14.6a40.4 40.4 0 0 0 9-6.2z"/><path fill="#a8a8a8" d="M75 728.8s15.4-.4 20-3.7 23.7-7.3 24.8-2 23.1 26.3 5.8 26.5-40.3-2.7-45-5.6-5.5-15.2-5.5-15.2z"/><path d="M125.9 747.7c-17.4.2-40.3-2.7-45-5.5-3.5-2.1-4.9-9.8-5.3-13.4H75s1 12.4 5.5 15.2 27.6 5.7 45 5.5c5 0 6.7-1.8 6.6-4.4-.7 1.6-2.6 2.6-6.3 2.6z" opacity=".2"/></svg>