<svg xmlns="http://www.w3.org/2000/svg" width="1057" height="678.5" data-name="Layer 1"><ellipse cx="167.5" cy="657" fill="#f2f2f2" rx="134" ry="21.5"/><ellipse cx="178" cy="644.5" fill="none" stroke="#3f3d56" stroke-miterlimit="10" rx="134" ry="21.5"/><rect width="403" height="240" x="81.5" y="27.5" fill="#6c63ff" rx="22.8"/><rect width="403" height="240" x="610.5" y="219.5" fill="#f2f2f2" rx="22.8"/><rect width="403" height="240" x="50.5" y=".5" fill="none" stroke="#3f3d56" stroke-miterlimit="10" rx="22.8"/><rect width="403" height="240" x="579.5" y="192.5" fill="none" stroke="#3f3d56" stroke-miterlimit="10" rx="22.8"/><path fill="none" stroke="#3f3d56" stroke-miterlimit="10" d="M959.9 71.5A23 23 0 0 0 940 85.3c-5 12 1.4 26 11 34.8s21.8 13.7 33 20.3c15 8.8 28.5 21 36 36.7s8.3 35.2-.5 50.2c-8.2 13.9-23 22.2-37.3 29.9"/><ellipse cx="972.5" cy="72.5" fill="#6c63ff" rx="17.5" ry="8.5"/><ellipse cx="986.5" cy="128.5" fill="#6c63ff" rx="17.5" ry="8.5"/><ellipse cx="954.5" cy="137.5" fill="#6c63ff" rx="17.5" ry="8.5"/><ellipse cx="1004.5" cy="184.5" fill="#6c63ff" rx="17.5" ry="8.5"/><ellipse cx="1039.5" cy="184.5" fill="#6c63ff" rx="17.5" ry="8.5"/><path fill="none" stroke="#3f3d56" stroke-miterlimit="10" d="M22.9 455.5A23 23 0 0 0 3 469.3c-5 12 1.4 26 11 34.8s21.8 13.7 33 20.3c15 8.8 28.5 21 36 36.7s8.3 35.2-.5 50.2c-8.2 13.9-23 22.2-37.3 29.9"/><ellipse cx="35.5" cy="456.5" fill="#6c63ff" rx="17.5" ry="8.5"/><ellipse cx="49.5" cy="512.5" fill="#6c63ff" rx="17.5" ry="8.5"/><ellipse cx="17.5" cy="521.5" fill="#6c63ff" rx="17.5" ry="8.5"/><ellipse cx="67.5" cy="568.5" fill="#6c63ff" rx="17.5" ry="8.5"/><ellipse cx="102.5" cy="568.5" fill="#6c63ff" rx="17.5" ry="8.5"/><path fill="#ffc1c7" d="M256 271.5s2 15-3 21-13 46-13 46v24s31-45 37-63 0-32 0-32z"/><path fill="#3f3d56" d="M253 197.5l.4.5a63.4 63.4 0 0 1 12 19.8c6.5 17.4 20.7 60.4 15.6 64.7-7 6-27 10-28 9s-21-63-21-63zM220.5 622.5s24 5 25 0a40 40 0 0 1 3-9s21.8 1 16 20a8 8 0 0 1-3.4 4.5 3898 3898 0 0 0-23.6 14.5c-4.7 3-11.4.7-16.1-1.6a8.6 8.6 0 0 1-4.7-9.4zM151.5 625.5s-24 5-25 0a40 40 0 0 0-3-9s-21.7.9-16 20a8.1 8.1 0 0 0 3.5 4.5l23.5 14.5c5.1 3.2 12.6.3 17.4-2.3a7 7 0 0 0 3.6-7.5z"/><path fill="#ffc1c7" d="M121.5 284.5s-2 15 3 21 13 29 13 29v24s-31-28-37-46 0-32 0-32z"/><circle cx="191.5" cy="136.5" r="25" fill="#ffc1c7"/><path fill="#ffc1c7" d="M211.5 146.5s-7 32 0 36-42 0-42 0 11-27 6-36 36 0 36 0z"/><path fill="#2f2e41" d="M235.5 359.5s9 13 6 53l-6 82s22 126 15 129-30 6-33 3-17-120-17-120l-13-96-20 110s-11 107-19 112c-5.7 3.6-17 1-23-.7a5.2 5.2 0 0 1-3.8-5.3c.7-16.8 4-83.2 11.8-124 9-47-9-141 7-143s95 0 95 0z"/><path fill="#3f3d56" d="M165.5 178.5s4-18 19-16 25 1 28 11 35 18 35 18 8 1 7 14-21 61-21 61 1 40 6 58 5 40-6 45-80 23-96 1c0 0-9-32-3-45s-1-64-1-64l-19-42s6-20 23-26a101.8 101.8 0 0 0 28-15z"/><path fill="#3f3d56" d="M122.5 210.5l-8 9s-24 59-17 65 27 10 28 9 18-52 18-52z"/><path fill="#2f2e41" d="M220.5 121.5s-4 3-5 10-7.1-4-8.6 10.5-25.4 24.5-34.4 17.5-24-51-3-58 42-6 46 1 5 19 5 19z"/><path d="M201 142c1.4-14.5 7.5-3.5 8.5-10.5s5-10 5-10-1-12-5-19c-2-3.3-7.7-5.3-15.6-5.7 10.8-.5 19.2 1.5 21.6 5.7 4 7 5 19 5 19s-4 3-5 10-7.1-4-8.6 10.5c-1.2 12.3-18.6 21.3-29.4 19.6 10.3-1.5 22.4-9.4 23.4-19.6z" opacity=".1"/></svg>